<?xml version="1.0" encoding="UTF-8" standalone="no"?>
<!DOCTYPE svg PUBLIC "-//W3C//DTD SVG 1.1//EN"
 "http://www.w3.org/Graphics/SVG/1.1/DTD/svg11.dtd">
<!-- Generated by graphviz version 2.43.0 (0)
 -->
<!-- Title: G Pages: 1 -->
<svg width="563pt" height="163pt"
 viewBox="0.00 0.00 562.74 162.82" xmlns="http://www.w3.org/2000/svg" xmlns:xlink="http://www.w3.org/1999/xlink">
<g id="graph0" class="graph" transform="scale(1 1) rotate(0) translate(4 158.82)">
<title>G</title>
<polygon fill="white" stroke="transparent" points="-4,4 -4,-158.82 558.74,-158.82 558.74,4 -4,4"/>
<!-- init -->
<g id="node1" class="node">
<title>init</title>
<ellipse fill="black" stroke="black" cx="1.8" cy="-58.82" rx="1.8" ry="1.8"/>
</g>
<!-- 1 -->
<g id="node2" class="node">
<title>1</title>
<ellipse fill="none" stroke="black" cx="85.45" cy="-58.82" rx="44.69" ry="18"/>
<text text-anchor="middle" x="85.45" y="-55.12" font-family="Times,serif" font-size="14.00">regular</text>
</g>
<!-- init&#45;&gt;1 -->
<g id="edge1" class="edge">
<title>init&#45;&gt;1</title>
<path fill="none" stroke="black" d="M3.72,-58.82C6.81,-58.82 17.39,-58.82 29.92,-58.82"/>
<polygon fill="black" stroke="black" points="30.28,-62.32 40.28,-58.82 30.28,-55.32 30.28,-62.32"/>
</g>
<!-- 1&#45;&gt;1 -->
<g id="edge2" class="edge">
<title>1&#45;&gt;1</title>
<path fill="none" stroke="black" d="M74.3,-76.61C72.41,-86.14 76.12,-94.82 85.45,-94.82 91.13,-94.82 94.73,-91.6 96.24,-86.92"/>
<polygon fill="black" stroke="black" points="99.75,-86.72 96.59,-76.61 92.76,-86.48 99.75,-86.72"/>
<text text-anchor="middle" x="85.45" y="-98.62" font-family="Times,serif" font-size="14.00">click &#39;regular&#39;</text>
</g>
<!-- 2 -->
<g id="node3" class="node">
<title>2</title>
<ellipse fill="none" stroke="black" cx="311.79" cy="-103.82" rx="36" ry="18"/>
<text text-anchor="middle" x="311.79" y="-100.12" font-family="Times,serif" font-size="14.00">small</text>
</g>
<!-- 1&#45;&gt;2 -->
<g id="edge5" class="edge">
<title>1&#45;&gt;2</title>
<path fill="none" stroke="black" d="M109.54,-74.11C120.76,-80.75 134.73,-87.9 148.29,-91.82 186.91,-103.01 232.73,-105.47 265.86,-105.45"/>
<polygon fill="black" stroke="black" points="266.17,-108.95 276.14,-105.37 266.11,-101.95 266.17,-108.95"/>
<text text-anchor="middle" x="196.79" y="-108.62" font-family="Times,serif" font-size="14.00">click &#39;small&#39;</text>
</g>
<!-- 3 -->
<g id="node4" class="node">
<title>3</title>
<ellipse fill="none" stroke="black" cx="513.74" cy="-58.82" rx="34.39" ry="18"/>
<text text-anchor="middle" x="513.74" y="-55.12" font-family="Times,serif" font-size="14.00">large</text>
</g>
<!-- 1&#45;&gt;3 -->
<g id="edge8" class="edge">
<title>1&#45;&gt;3</title>
<path fill="none" stroke="black" d="M130.37,-58.03C136.39,-57.94 142.49,-57.87 148.29,-57.82 287.4,-56.7 322.19,-56.47 461.29,-57.82 463.83,-57.85 466.44,-57.88 469.08,-57.92"/>
<polygon fill="black" stroke="black" points="469.2,-61.42 479.25,-58.08 469.31,-54.42 469.2,-61.42"/>
<text text-anchor="middle" x="311.79" y="-60.62" font-family="Times,serif" font-size="14.00">click &#39;large&#39;</text>
</g>
<!-- 2&#45;&gt;1 -->
<g id="edge3" class="edge">
<title>2&#45;&gt;1</title>
<path fill="none" stroke="black" d="M285.54,-91.48C273.6,-86.16 258.99,-80.35 245.29,-76.82 211,-68 171.44,-63.5 140.37,-61.21"/>
<polygon fill="black" stroke="black" points="140.4,-57.7 130.18,-60.51 139.92,-64.68 140.4,-57.7"/>
<text text-anchor="middle" x="196.79" y="-80.62" font-family="Times,serif" font-size="14.00">click &#39;regular&#39;</text>
</g>
<!-- 2&#45;&gt;2 -->
<g id="edge6" class="edge">
<title>2&#45;&gt;2</title>
<path fill="none" stroke="black" d="M293.33,-119.37C288.13,-129.73 294.28,-139.82 311.79,-139.82 323.28,-139.82 329.88,-135.48 331.59,-129.56"/>
<polygon fill="black" stroke="black" points="335.03,-128.83 330.26,-119.37 328.09,-129.74 335.03,-128.83"/>
<text text-anchor="middle" x="311.79" y="-143.62" font-family="Times,serif" font-size="14.00">click &#39;small&#39;</text>
</g>
<!-- 2&#45;&gt;3 -->
<g id="edge9" class="edge">
<title>2&#45;&gt;3</title>
<path fill="none" stroke="black" d="M347.36,-105.7C378.08,-106.29 423.8,-104.48 461.29,-91.82 469.82,-88.95 478.34,-84.35 485.93,-79.5"/>
<polygon fill="black" stroke="black" points="488.05,-82.28 494.35,-73.76 484.11,-76.5 488.05,-82.28"/>
<text text-anchor="middle" x="419.79" y="-108.62" font-family="Times,serif" font-size="14.00">click &#39;large&#39;</text>
</g>
<!-- 3&#45;&gt;1 -->
<g id="edge4" class="edge">
<title>3&#45;&gt;1</title>
<path fill="none" stroke="black" d="M491.95,-44.75C482.86,-39.13 471.87,-33 461.29,-28.82 418.47,-11.92 406.04,-10.97 360.29,-5.82 266.11,4.76 238.12,1.4 148.29,-28.82 139.4,-31.81 130.15,-35.79 121.58,-39.88"/>
<polygon fill="black" stroke="black" points="120.03,-36.74 112.61,-44.3 123.13,-43.02 120.03,-36.74"/>
<text text-anchor="middle" x="311.79" y="-9.62" font-family="Times,serif" font-size="14.00">click &#39;regular&#39;</text>
</g>
<!-- 3&#45;&gt;2 -->
<g id="edge7" class="edge">
<title>3&#45;&gt;2</title>
<path fill="none" stroke="black" d="M479.4,-60.89C451.9,-63.16 412.07,-67.76 378.29,-76.82 368.05,-79.57 357.27,-83.53 347.48,-87.58"/>
<polygon fill="black" stroke="black" points="345.89,-84.45 338.08,-91.61 348.65,-90.88 345.89,-84.45"/>
<text text-anchor="middle" x="419.79" y="-80.62" font-family="Times,serif" font-size="14.00">click &#39;small&#39;</text>
</g>
<!-- 3&#45;&gt;3 -->
<g id="edge10" class="edge">
<title>3&#45;&gt;3</title>
<path fill="none" stroke="black" d="M497.71,-75.11C493.84,-85.21 499.18,-94.82 513.74,-94.82 523.06,-94.82 528.61,-90.88 530.37,-85.39"/>
<polygon fill="black" stroke="black" points="533.85,-84.89 529.77,-75.11 526.86,-85.3 533.85,-84.89"/>
<text text-anchor="middle" x="513.74" y="-98.62" font-family="Times,serif" font-size="14.00">click &#39;large&#39;</text>
</g>
</g>
</svg>
