<?xml version="1.0" encoding="UTF-8" standalone="no"?>
<!DOCTYPE svg PUBLIC "-//W3C//DTD SVG 1.1//EN"
 "http://www.w3.org/Graphics/SVG/1.1/DTD/svg11.dtd">
<!-- Generated by graphviz version 2.43.0 (0)
 -->
<!-- Title: G Pages: 1 -->
<svg width="407pt" height="79pt"
 viewBox="0.00 0.00 407.00 79.00" xmlns="http://www.w3.org/2000/svg" xmlns:xlink="http://www.w3.org/1999/xlink">
<g id="graph0" class="graph" transform="scale(1 1) rotate(0) translate(4 75)">
<title>G</title>
<polygon fill="white" stroke="transparent" points="-4,4 -4,-75 403,-75 403,4 -4,4"/>
<!-- A -->
<g id="node1" class="node">
<title>A</title>
<ellipse fill="none" stroke="black" cx="27" cy="-18" rx="27" ry="18"/>
<text text-anchor="middle" x="27" y="-14.3" font-family="Times,serif" font-size="14.00">A</text>
</g>
<!-- B -->
<g id="node2" class="node">
<title>B</title>
<ellipse fill="none" stroke="black" cx="142" cy="-53" rx="27" ry="18"/>
<text text-anchor="middle" x="142" y="-49.3" font-family="Times,serif" font-size="14.00">B</text>
</g>
<!-- A&#45;&gt;B -->
<g id="edge1" class="edge">
<title>A&#45;&gt;B</title>
<path fill="none" stroke="black" d="M51.69,-25.34C67.78,-30.32 89.3,-36.99 107.18,-42.53"/>
<polygon fill="black" stroke="black" points="106.37,-45.94 116.95,-45.55 108.44,-39.25 106.37,-45.94"/>
<text text-anchor="middle" x="84.5" y="-41.8" font-family="Times,serif" font-size="14.00">e_1</text>
</g>
<!-- C -->
<g id="node3" class="node">
<title>C</title>
<ellipse fill="none" stroke="black" cx="257" cy="-35" rx="27" ry="18"/>
<text text-anchor="middle" x="257" y="-31.3" font-family="Times,serif" font-size="14.00">C</text>
</g>
<!-- B&#45;&gt;C -->
<g id="edge2" class="edge">
<title>B&#45;&gt;C</title>
<path fill="none" stroke="black" d="M169.1,-54.2C182.1,-54.3 197.99,-53.68 212,-51 216.02,-50.23 220.15,-49.15 224.21,-47.9"/>
<polygon fill="black" stroke="black" points="225.67,-51.1 234.01,-44.56 223.41,-44.48 225.67,-51.1"/>
<text text-anchor="middle" x="199.5" y="-56.8" font-family="Times,serif" font-size="14.00">e_2</text>
</g>
<!-- C&#45;&gt;A -->
<g id="edge4" class="edge">
<title>C&#45;&gt;A</title>
<path fill="none" stroke="black" d="M232.72,-26.74C215.4,-21.04 191.05,-13.99 169,-11 133.2,-6.15 91.88,-9.21 63.27,-12.67"/>
<polygon fill="black" stroke="black" points="62.8,-9.2 53.33,-13.95 63.7,-16.15 62.8,-9.2"/>
<text text-anchor="middle" x="142" y="-14.8" font-family="Times,serif" font-size="14.00">e_4</text>
</g>
<!-- C&#45;&gt;B -->
<g id="edge5" class="edge">
<title>C&#45;&gt;B</title>
<path fill="none" stroke="black" d="M230.48,-30.7C217.34,-29.29 201.15,-28.8 187,-32 182.1,-33.11 177.1,-34.83 172.32,-36.83"/>
<polygon fill="black" stroke="black" points="170.51,-33.81 162.91,-41.19 173.45,-40.16 170.51,-33.81"/>
<text text-anchor="middle" x="199.5" y="-35.8" font-family="Times,serif" font-size="14.00">e_5</text>
</g>
<!-- D -->
<g id="node4" class="node">
<title>D</title>
<ellipse fill="none" stroke="black" cx="372" cy="-35" rx="27" ry="18"/>
<text text-anchor="middle" x="372" y="-31.3" font-family="Times,serif" font-size="14.00">D</text>
</g>
<!-- C&#45;&gt;D -->
<g id="edge3" class="edge">
<title>C&#45;&gt;D</title>
<path fill="none" stroke="black" d="M284.21,-35C299.18,-35 318.19,-35 334.6,-35"/>
<polygon fill="black" stroke="black" points="334.93,-38.5 344.93,-35 334.93,-31.5 334.93,-38.5"/>
<text text-anchor="middle" x="314.5" y="-38.8" font-family="Times,serif" font-size="14.00">e_3</text>
</g>
</g>
</svg>
