<?xml version="1.0" encoding="UTF-8" standalone="no"?>
<!DOCTYPE svg PUBLIC "-//W3C//DTD SVG 1.1//EN"
 "http://www.w3.org/Graphics/SVG/1.1/DTD/svg11.dtd">
<!-- Generated by graphviz version 2.43.0 (0)
 -->
<!-- Title: S Pages: 1 -->
<svg width="449pt" height="447pt"
 viewBox="0.00 0.00 448.50 446.60" xmlns="http://www.w3.org/2000/svg" xmlns:xlink="http://www.w3.org/1999/xlink">
<g id="graph0" class="graph" transform="scale(1 1) rotate(0) translate(4 442.6)">
<title>S</title>
<polygon fill="white" stroke="transparent" points="-4,4 -4,-442.6 444.5,-442.6 444.5,4 -4,4"/>
<!-- init -->
<g id="node1" class="node">
<title>init</title>
<ellipse fill="black" stroke="black" cx="208.5" cy="-436.8" rx="1.8" ry="1.8"/>
</g>
<!-- f1 -->
<g id="node2" class="node">
<title>f1</title>
<polygon fill="none" stroke="black" points="272,-384 145,-384 145,-348 272,-348 272,-384"/>
<text text-anchor="middle" x="208.5" y="-362.3" font-family="Times,serif" font-size="14.00">in development</text>
</g>
<!-- init&#45;&gt;f1 -->
<g id="edge1" class="edge">
<title>init&#45;&gt;f1</title>
<path fill="none" stroke="black" d="M208.5,-434.83C208.5,-430.34 208.5,-411.11 208.5,-394.27"/>
<polygon fill="black" stroke="black" points="212,-394.24 208.5,-384.24 205,-394.24 212,-394.24"/>
<text text-anchor="middle" x="241.5" y="-405.8" font-family="Times,serif" font-size="14.00">edit code</text>
</g>
<!-- f2 -->
<g id="node3" class="node">
<title>f2</title>
<polygon fill="none" stroke="black" points="254,-297 163,-297 163,-261 254,-261 254,-297"/>
<text text-anchor="middle" x="208.5" y="-275.3" font-family="Times,serif" font-size="14.00">completed</text>
</g>
<!-- f1&#45;&gt;f2 -->
<g id="edge2" class="edge">
<title>f1&#45;&gt;f2</title>
<path fill="none" stroke="black" d="M208.5,-347.8C208.5,-336.16 208.5,-320.55 208.5,-307.24"/>
<polygon fill="black" stroke="black" points="212,-307.18 208.5,-297.18 205,-307.18 212,-307.18"/>
<text text-anchor="middle" x="255.5" y="-318.8" font-family="Times,serif" font-size="14.00">finish editing</text>
</g>
<!-- p1 -->
<g id="node4" class="node">
<title>p1</title>
<polygon fill="none" stroke="black" points="250,-210 167,-210 167,-174 250,-174 250,-210"/>
<text text-anchor="middle" x="208.5" y="-188.3" font-family="Times,serif" font-size="14.00">in review</text>
</g>
<!-- f2&#45;&gt;p1 -->
<g id="edge3" class="edge">
<title>f2&#45;&gt;p1</title>
<path fill="none" stroke="black" d="M208.5,-260.8C208.5,-249.16 208.5,-233.55 208.5,-220.24"/>
<polygon fill="black" stroke="black" points="212,-220.18 208.5,-210.18 205,-220.18 212,-220.18"/>
<text text-anchor="middle" x="262.5" y="-231.8" font-family="Times,serif" font-size="14.00">request review</text>
</g>
<!-- p2 -->
<g id="node5" class="node">
<title>p2</title>
<polygon fill="none" stroke="black" points="83,-123 0,-123 0,-87 83,-87 83,-123"/>
<text text-anchor="middle" x="41.5" y="-101.3" font-family="Times,serif" font-size="14.00">approved</text>
</g>
<!-- p1&#45;&gt;p2 -->
<g id="edge4" class="edge">
<title>p1&#45;&gt;p2</title>
<path fill="none" stroke="black" d="M166.67,-187.09C125.08,-182.3 65.26,-172.7 49.5,-156 43.82,-149.98 41.23,-141.61 40.24,-133.45"/>
<polygon fill="black" stroke="black" points="43.73,-133.21 39.71,-123.41 36.74,-133.58 43.73,-133.21"/>
<text text-anchor="middle" x="91" y="-144.8" font-family="Times,serif" font-size="14.00">approve PR</text>
</g>
<!-- p3 -->
<g id="node6" class="node">
<title>p3</title>
<polygon fill="none" stroke="black" points="321.5,-123 169.5,-123 169.5,-87 321.5,-87 321.5,-123"/>
<text text-anchor="middle" x="245.5" y="-101.3" font-family="Times,serif" font-size="14.00">changes requested</text>
</g>
<!-- p1&#45;&gt;p3 -->
<g id="edge6" class="edge">
<title>p1&#45;&gt;p3</title>
<path fill="none" stroke="black" d="M166.62,-177.91C146.2,-169.24 128.23,-156.59 139.5,-141 145,-133.39 152.22,-127.4 160.31,-122.7"/>
<polygon fill="black" stroke="black" points="162.06,-125.74 169.39,-118.09 158.89,-119.5 162.06,-125.74"/>
<text text-anchor="middle" x="198.5" y="-144.8" font-family="Times,serif" font-size="14.00">request changes</text>
</g>
<!-- p5 -->
<g id="node8" class="node">
<title>p5</title>
<polygon fill="none" stroke="black" points="276.5,-36 214.5,-36 214.5,0 276.5,0 276.5,-36"/>
<text text-anchor="middle" x="245.5" y="-14.3" font-family="Times,serif" font-size="14.00">closed</text>
</g>
<!-- p1&#45;&gt;p5 -->
<g id="edge8" class="edge">
<title>p1&#45;&gt;p5</title>
<path fill="none" stroke="black" d="M250.35,-187.88C293.5,-183.69 356.54,-174.52 371.5,-156 407.09,-111.96 334.94,-64.03 285.86,-38.16"/>
<polygon fill="black" stroke="black" points="287.19,-34.91 276.69,-33.45 283.98,-41.13 287.19,-34.91"/>
<text text-anchor="middle" x="410" y="-101.3" font-family="Times,serif" font-size="14.00">close PR</text>
</g>
<!-- p4 -->
<g id="node7" class="node">
<title>p4</title>
<polygon fill="none" stroke="black" points="77,-36 6,-36 6,0 77,0 77,-36"/>
<text text-anchor="middle" x="41.5" y="-14.3" font-family="Times,serif" font-size="14.00">merged</text>
</g>
<!-- p2&#45;&gt;p4 -->
<g id="edge5" class="edge">
<title>p2&#45;&gt;p4</title>
<path fill="none" stroke="black" d="M41.5,-86.8C41.5,-75.16 41.5,-59.55 41.5,-46.24"/>
<polygon fill="black" stroke="black" points="45,-46.18 41.5,-36.18 38,-46.18 45,-46.18"/>
<text text-anchor="middle" x="77" y="-57.8" font-family="Times,serif" font-size="14.00">merge PR</text>
</g>
<!-- p2&#45;&gt;p5 -->
<g id="edge9" class="edge">
<title>p2&#45;&gt;p5</title>
<path fill="none" stroke="black" d="M82.78,-86.8C118.33,-71.99 169.34,-50.73 204.73,-35.99"/>
<polygon fill="black" stroke="black" points="206.39,-39.09 214.27,-32.01 203.7,-32.63 206.39,-39.09"/>
<text text-anchor="middle" x="187" y="-57.8" font-family="Times,serif" font-size="14.00">close PR</text>
</g>
<!-- p3&#45;&gt;p1 -->
<g id="edge7" class="edge">
<title>p3&#45;&gt;p1</title>
<path fill="none" stroke="black" d="M255.42,-123.38C259.73,-133.34 262.73,-145.84 257.5,-156 255.4,-160.08 252.57,-163.8 249.34,-167.15"/>
<polygon fill="black" stroke="black" points="246.88,-164.65 241.72,-173.9 251.52,-169.89 246.88,-164.65"/>
<text text-anchor="middle" x="313.5" y="-144.8" font-family="Times,serif" font-size="14.00">request review</text>
</g>
<!-- p3&#45;&gt;p5 -->
<g id="edge10" class="edge">
<title>p3&#45;&gt;p5</title>
<path fill="none" stroke="black" d="M245.5,-86.8C245.5,-75.16 245.5,-59.55 245.5,-46.24"/>
<polygon fill="black" stroke="black" points="249,-46.18 245.5,-36.18 242,-46.18 249,-46.18"/>
<text text-anchor="middle" x="276" y="-57.8" font-family="Times,serif" font-size="14.00">close PR</text>
</g>
</g>
</svg>
