<?xml version="1.0" encoding="UTF-8" standalone="no"?>
<?xml-stylesheet href="latex-dkpQc0.css" type="text/css"?><svg
   xmlns:dc="http://purl.org/dc/elements/1.1/"
   xmlns:cc="http://creativecommons.org/ns#"
   xmlns:rdf="http://www.w3.org/1999/02/22-rdf-syntax-ns#"
   xmlns:svg="http://www.w3.org/2000/svg"
   xmlns="http://www.w3.org/2000/svg"
   xmlns:sodipodi="http://sodipodi.sourceforge.net/DTD/sodipodi-0.dtd"
   xmlns:inkscape="http://www.inkscape.org/namespaces/inkscape"
   width="268.19269"
   height="136.56557"
   viewBox="-7.98749 -93.8912 201.14451 102.42418"
   version="1.1"
   id="svg1371"
   sodipodi:docname="even_block.svg"
   inkscape:version="0.92.5 (2060ec1f9f, 2020-04-08)">
  <metadata
     id="metadata1377">
    <rdf:RDF>
      <cc:Work
         rdf:about="">
        <dc:format>image/svg+xml</dc:format>
        <dc:type
           rdf:resource="http://purl.org/dc/dcmitype/StillImage" />
        <dc:title></dc:title>
      </cc:Work>
    </rdf:RDF>
  </metadata>
  <defs
     id="defs1375" />
  <sodipodi:namedview
     pagecolor="#ffffff"
     bordercolor="#666666"
     borderopacity="1"
     objecttolerance="10"
     gridtolerance="10"
     guidetolerance="10"
     inkscape:pageopacity="0"
     inkscape:pageshadow="2"
     inkscape:window-width="952"
     inkscape:window-height="1046"
     id="namedview1373"
     showgrid="false"
     inkscape:zoom="2.3869167"
     inkscape:cx="164.94515"
     inkscape:cy="42.635953"
     inkscape:window-x="962"
     inkscape:window-y="4"
     inkscape:window-maximized="0"
     inkscape:current-layer="svg1371"
     units="px"
     fit-margin-top="0"
     fit-margin-left="0"
     fit-margin-right="0"
     fit-margin-bottom="0" />
  <path
     style="fill:#000000;stroke:none;stroke-width:0.40000001"
     inkscape:connector-curvature="0"
     id="path1017"
     d="m 43.23052,-85.35823 c 0,-1.38072 -1.11928,-2.5 -2.5,-2.5 -1.38072,0 -2.5,1.11928 -2.5,2.5 0,1.38072 1.11928,2.5 2.5,2.5 1.38072,0 2.5,-1.11928 2.5,-2.5 z m -2.5,0" />
  <g
     style="fill:#000000;stroke:#000000;stroke-width:0.40000001"
     id="g1027"
     transform="matrix(1,0,0,-1,40.73052,-85.35823)">
    <g
       style="fill:#000000"
       id="g1025">
      <text
         id="text1023"
         font-size="10"
         transform="scale(1,-1)"
         style="font-size:10px;text-anchor:middle;stroke:none">
        <g
           style="fill:#000000"
           id="g1021">
          <g
             style="stroke:none"
             id="g1019" />
        </g>
      </text>
    </g>
  </g>
  <path
     style="fill:none;stroke:#000000;stroke-width:0.40000001"
     inkscape:connector-curvature="0"
     id="path1029"
     d="M 38.03052,-85.35823 H -7.98749" />
  <path
     style="fill:#000000;stroke:none;stroke-width:0.40000001"
     inkscape:connector-curvature="0"
     id="path1031"
     d="m 43.23052,-56.90549 c 0,-1.38072 -1.11928,-2.5 -2.5,-2.5 -1.38072,0 -2.5,1.11928 -2.5,2.5 0,1.38073 1.11928,2.5 2.5,2.5 1.38072,0 2.5,-1.11927 2.5,-2.5 z m -2.5,0" />
  <g
     style="fill:#000000;stroke:#000000;stroke-width:0.40000001"
     id="g1041"
     transform="matrix(1,0,0,-1,40.73052,-56.90549)">
    <g
       style="fill:#000000"
       id="g1039">
      <text
         id="text1037"
         font-size="10"
         transform="scale(1,-1)"
         style="font-size:10px;text-anchor:middle;stroke:none">
        <g
           style="fill:#000000"
           id="g1035">
          <g
             style="stroke:none"
             id="g1033" />
        </g>
      </text>
    </g>
  </g>
  <path
     style="fill:none;stroke:#000000;stroke-width:0.40000001"
     inkscape:connector-curvature="0"
     id="path1043"
     d="M 38.03052,-56.90549 H -7.98749" />
  <path
     style="fill:none;stroke:#000000;stroke-width:0.40000001"
     inkscape:connector-curvature="0"
     id="path1045"
     d="m 40.73052,-82.65823 v 23.05275" />
  <path
     style="fill:#000000;stroke:none;stroke-width:0.40000001"
     inkscape:connector-curvature="0"
     id="path1047"
     d="m 71.68326,-85.35823 c 0,-1.38072 -1.11928,-2.5 -2.5,-2.5 -1.38072,0 -2.5,1.11928 -2.5,2.5 0,1.38072 1.11928,2.5 2.5,2.5 1.38072,0 2.5,-1.11928 2.5,-2.5 z m -2.5,0" />
  <g
     style="fill:#000000;stroke:#000000;stroke-width:0.40000001"
     id="g1057"
     transform="matrix(1,0,0,-1,69.18326,-85.35823)">
    <g
       style="fill:#000000"
       id="g1055">
      <text
         id="text1053"
         font-size="10"
         transform="scale(1,-1)"
         style="font-size:10px;text-anchor:middle;stroke:none">
        <g
           style="fill:#000000"
           id="g1051">
          <g
             style="stroke:none"
             id="g1049" />
        </g>
      </text>
    </g>
  </g>
  <path
     style="fill:none;stroke:#000000;stroke-width:0.40000001"
     inkscape:connector-curvature="0"
     id="path1059"
     d="M 66.48326,-85.35823 H 43.43051" />
  <path
     style="fill:#000000;stroke:none;stroke-width:0.40000001"
     inkscape:connector-curvature="0"
     id="path1061"
     d="m 71.68326,-28.45274 c 0,-1.38072 -1.11928,-2.5 -2.5,-2.5 -1.38072,0 -2.5,1.11928 -2.5,2.5 0,1.38072 1.11928,2.5 2.5,2.5 1.38072,0 2.5,-1.11928 2.5,-2.5 z m -2.5,0" />
  <g
     style="fill:#000000;stroke:#000000;stroke-width:0.40000001"
     id="g1071"
     transform="matrix(1,0,0,-1,69.18326,-28.45274)">
    <g
       style="fill:#000000"
       id="g1069">
      <text
         id="text1067"
         font-size="10"
         transform="scale(1,-1)"
         style="font-size:10px;text-anchor:middle;stroke:none">
        <g
           style="fill:#000000"
           id="g1065">
          <g
             style="stroke:none"
             id="g1063" />
        </g>
      </text>
    </g>
  </g>
  <path
     style="fill:none;stroke:#000000;stroke-width:0.40000001"
     inkscape:connector-curvature="0"
     id="path1073"
     d="M 66.48326,-28.45274 H -7.98749" />
  <path
     style="fill:none;stroke:#000000;stroke-width:0.40000001"
     inkscape:connector-curvature="0"
     id="path1075"
     d="m 69.18326,-82.65823 v 51.50549" />
  <path
     style="fill:#000000;stroke:none;stroke-width:0.40000001"
     inkscape:connector-curvature="0"
     id="path1077"
     d="m 100.136,-85.35823 c 0,-1.38072 -1.11927,-2.5 -2.5,-2.5 -1.38072,0 -2.5,1.11928 -2.5,2.5 0,1.38072 1.11928,2.5 2.5,2.5 1.38073,0 2.5,-1.11928 2.5,-2.5 z m -2.5,0" />
  <g
     style="fill:#000000;stroke:#000000;stroke-width:0.40000001"
     id="g1087"
     transform="matrix(1,0,0,-1,97.636,-85.35823)">
    <g
       style="fill:#000000"
       id="g1085">
      <text
         id="text1083"
         font-size="10"
         transform="scale(1,-1)"
         style="font-size:10px;text-anchor:middle;stroke:none">
        <g
           style="fill:#000000"
           id="g1081">
          <g
             style="stroke:none"
             id="g1079" />
        </g>
      </text>
    </g>
  </g>
  <path
     style="fill:none;stroke:#000000;stroke-width:0.40000001"
     inkscape:connector-curvature="0"
     id="path1089"
     d="M 94.93601,-85.35823 H 71.88326" />
  <path
     style="fill:#000000;stroke:none;stroke-width:0.40000001"
     inkscape:connector-curvature="0"
     id="path1091"
     d="M 100.136,5.8206675e-8 C 100.136,-1.38072 99.01673,-2.5 97.636,-2.5 96.25528,-2.5 95.136,-1.38072 95.136,5.8206675e-8 95.136,1.38072 96.25528,2.5 97.636,2.5 c 1.38073,0 2.5,-1.11928 2.5,-2.499999941793325 z m -2.5,0" />
  <g
     style="fill:#000000;stroke:#000000;stroke-width:0.40000001"
     id="g1101"
     transform="matrix(1,0,0,-1,97.636,5.8206677e-8)">
    <g
       style="fill:#000000"
       id="g1099">
      <text
         id="text1097"
         font-size="10"
         transform="scale(1,-1)"
         style="font-size:10px;text-anchor:middle;stroke:none">
        <g
           style="fill:#000000"
           id="g1095">
          <g
             style="stroke:none"
             id="g1093" />
        </g>
      </text>
    </g>
  </g>
  <path
     style="fill:none;stroke:#000000;stroke-width:0.40000001"
     inkscape:connector-curvature="0"
     id="path1103"
     d="M 94.93601,5.8206675e-8 H -7.98749" />
  <path
     style="fill:none;stroke:#000000;stroke-width:0.40000001"
     inkscape:connector-curvature="0"
     id="path1105"
     d="M 97.636,-82.65823 V -2.7" />
  <path
     style="fill:#000000;stroke:none;stroke-width:0.40000001"
     inkscape:connector-curvature="0"
     id="path1107"
     d="m 128.58875,-56.90549 c 0,-1.38072 -1.11928,-2.5 -2.5,-2.5 -1.38072,0 -2.5,1.11928 -2.5,2.5 0,1.38073 1.11928,2.5 2.5,2.5 1.38072,0 2.5,-1.11927 2.5,-2.5 z m -2.5,0" />
  <g
     style="fill:#000000;stroke:#000000;stroke-width:0.40000001"
     id="g1117"
     transform="matrix(1,0,0,-1,126.08875,-56.90549)">
    <g
       style="fill:#000000"
       id="g1115">
      <text
         id="text1113"
         font-size="10"
         transform="scale(1,-1)"
         style="font-size:10px;text-anchor:middle;stroke:none">
        <g
           style="fill:#000000"
           id="g1111">
          <g
             style="stroke:none"
             id="g1109" />
        </g>
      </text>
    </g>
  </g>
  <path
     style="fill:none;stroke:#000000;stroke-width:0.40000001"
     inkscape:connector-curvature="0"
     id="path1119"
     d="M 123.38875,-56.90549 H 43.43051" />
  <path
     style="fill:#000000;stroke:none;stroke-width:0.40000001"
     inkscape:connector-curvature="0"
     id="path1121"
     d="m 128.58875,-28.45274 c 0,-1.38072 -1.11928,-2.5 -2.5,-2.5 -1.38072,0 -2.5,1.11928 -2.5,2.5 0,1.38072 1.11928,2.5 2.5,2.5 1.38072,0 2.5,-1.11928 2.5,-2.5 z m -2.5,0" />
  <g
     style="fill:#000000;stroke:#000000;stroke-width:0.40000001"
     id="g1131"
     transform="matrix(1,0,0,-1,126.08875,-28.45274)">
    <g
       style="fill:#000000"
       id="g1129">
      <text
         id="text1127"
         font-size="10"
         transform="scale(1,-1)"
         style="font-size:10px;text-anchor:middle;stroke:none">
        <g
           style="fill:#000000"
           id="g1125">
          <g
             style="stroke:none"
             id="g1123" />
        </g>
      </text>
    </g>
  </g>
  <path
     style="fill:none;stroke:#000000;stroke-width:0.40000001"
     inkscape:connector-curvature="0"
     id="path1133"
     d="M 123.38875,-28.45274 H 71.88326" />
  <path
     style="fill:none;stroke:#000000;stroke-width:0.40000001"
     inkscape:connector-curvature="0"
     id="path1135"
     d="m 126.08875,-54.20549 v 23.05275" />
  <path
     style="fill:#000000;stroke:none;stroke-width:0.40000001"
     inkscape:connector-curvature="0"
     id="path1137"
     d="m 157.04149,-56.90549 c 0,-1.38072 -1.11928,-2.5 -2.5,-2.5 -1.38072,0 -2.5,1.11928 -2.5,2.5 0,1.38073 1.11928,2.5 2.5,2.5 1.38072,0 2.5,-1.11927 2.5,-2.5 z m -2.5,0" />
  <g
     style="fill:#000000;stroke:#000000;stroke-width:0.40000001"
     id="g1147"
     transform="matrix(1,0,0,-1,154.54149,-56.90549)">
    <g
       style="fill:#000000"
       id="g1145">
      <text
         id="text1143"
         font-size="10"
         transform="scale(1,-1)"
         style="font-size:10px;text-anchor:middle;stroke:none">
        <g
           style="fill:#000000"
           id="g1141">
          <g
             style="stroke:none"
             id="g1139" />
        </g>
      </text>
    </g>
  </g>
  <path
     style="fill:none;stroke:#000000;stroke-width:0.40000001"
     inkscape:connector-curvature="0"
     id="path1149"
     d="M 151.84149,-56.90549 H 128.78874" />
  <path
     style="fill:#000000;stroke:none;stroke-width:0.40000001"
     inkscape:connector-curvature="0"
     id="path1151"
     d="M 157.04149,5.8206675e-8 C 157.04149,-1.38072 155.92221,-2.5 154.54149,-2.5 c -1.38072,0 -2.5,1.11928 -2.5,2.500000058206675 C 152.04149,1.38072 153.16077,2.5 154.54149,2.5 c 1.38072,0 2.5,-1.11928 2.5,-2.499999941793325 z m -2.5,0" />
  <g
     style="fill:#000000;stroke:#000000;stroke-width:0.40000001"
     id="g1161"
     transform="matrix(1,0,0,-1,154.54149,5.8206677e-8)">
    <g
       style="fill:#000000"
       id="g1159">
      <text
         id="text1157"
         font-size="10"
         transform="scale(1,-1)"
         style="font-size:10px;text-anchor:middle;stroke:none">
        <g
           style="fill:#000000"
           id="g1155">
          <g
             style="stroke:none"
             id="g1153" />
        </g>
      </text>
    </g>
  </g>
  <path
     style="fill:none;stroke:#000000;stroke-width:0.40000001"
     inkscape:connector-curvature="0"
     id="path1163"
     d="M 151.84149,5.8206675e-8 H 100.336" />
  <path
     style="fill:none;stroke:#000000;stroke-width:0.40000001"
     inkscape:connector-curvature="0"
     id="path1165"
     d="M 154.54149,-54.20549 V -2.7" />
  <path
     style="fill:#000000;stroke:none;stroke-width:0.40000001"
     inkscape:connector-curvature="0"
     id="path1167"
     d="m 185.49423,-28.45274 c 0,-1.38072 -1.11927,-2.5 -2.5,-2.5 -1.38072,0 -2.5,1.11928 -2.5,2.5 0,1.38072 1.11928,2.5 2.5,2.5 1.38073,0 2.5,-1.11928 2.5,-2.5 z m -2.5,0" />
  <g
     style="fill:#000000;stroke:#000000;stroke-width:0.40000001"
     id="g1177"
     transform="matrix(1,0,0,-1,182.99423,-28.45274)">
    <g
       style="fill:#000000"
       id="g1175">
      <text
         id="text1173"
         font-size="10"
         transform="scale(1,-1)"
         style="font-size:10px;text-anchor:middle;stroke:none">
        <g
           style="fill:#000000"
           id="g1171">
          <g
             style="stroke:none"
             id="g1169" />
        </g>
      </text>
    </g>
  </g>
  <path
     style="fill:none;stroke:#000000;stroke-width:0.40000001"
     inkscape:connector-curvature="0"
     id="path1179"
     d="m 180.29424,-28.45274 h -51.5055" />
  <path
     style="fill:#000000;stroke:none;stroke-width:0.40000001"
     inkscape:connector-curvature="0"
     id="path1181"
     d="M 185.49423,5.8206675e-8 C 185.49423,-1.38072 184.37496,-2.5 182.99423,-2.5 c -1.38072,0 -2.5,1.11928 -2.5,2.500000058206675 C 180.49423,1.38072 181.61351,2.5 182.99423,2.5 c 1.38073,0 2.5,-1.11928 2.5,-2.499999941793325 z m -2.5,0" />
  <g
     style="fill:#000000;stroke:#000000;stroke-width:0.40000001"
     id="g1191"
     transform="matrix(1,0,0,-1,182.99423,5.8206677e-8)">
    <g
       style="fill:#000000"
       id="g1189">
      <text
         id="text1187"
         font-size="10"
         transform="scale(1,-1)"
         style="font-size:10px;text-anchor:middle;stroke:none">
        <g
           style="fill:#000000"
           id="g1185">
          <g
             style="stroke:none"
             id="g1183" />
        </g>
      </text>
    </g>
  </g>
  <path
     style="fill:none;stroke:#000000;stroke-width:0.40000001"
     inkscape:connector-curvature="0"
     id="path1193"
     d="M 180.29424,5.8206675e-8 H 157.24149" />
  <path
     style="fill:none;stroke:#000000;stroke-width:0.40000001"
     inkscape:connector-curvature="0"
     id="path1195"
     d="M 182.99423,-25.75275 V -2.7" />
  <g
     id="g1199"
     style="fill:#ffffff;stroke:#000000;stroke-width:0.40000001"
     transform="matrix(1,0,0,-1,-211.9296,-85.35823)">
    <path
       d="m 209.53198,-8.33298 h 36.17993 V 8.33297 h -36.17993 z"
       id="path1197"
       inkscape:connector-curvature="0" />
  </g>
  <path
     style="fill:none;stroke:#000000;stroke-width:0.40000001"
     inkscape:connector-curvature="0"
     id="path1225"
     d="M 193.15702,-85.35823 H 100.336" />
  <g
     id="g1229"
     style="fill:#ffffff;stroke:#000000;stroke-width:0.40000001"
     transform="matrix(1,0,0,-1,-211.9296,-85.35823)">
    <path
       d="m 209.53198,-36.78572 h 36.17993 v 16.66595 h -36.17993 z"
       id="path1227"
       inkscape:connector-curvature="0" />
  </g>
  <path
     style="fill:none;stroke:#000000;stroke-width:0.40000001"
     inkscape:connector-curvature="0"
     id="path1255"
     d="M 193.15702,-56.90549 H 157.24149" />
  <g
     id="g1259"
     style="fill:#ffffff;stroke:#000000;stroke-width:0.40000001"
     transform="matrix(1,0,0,-1,-211.9296,-85.35823)">
    <path
       d="m 209.53198,-65.23846 h 36.17993 v 16.66595 h -36.17993 z"
       id="path1257"
       inkscape:connector-curvature="0" />
  </g>
  <path
     style="fill:none;stroke:#000000;stroke-width:0.40000001"
     inkscape:connector-curvature="0"
     id="path1285"
     d="m 193.15702,-28.45274 h -7.46279" />
  <g
     id="g1289"
     style="fill:#ffffff;stroke:#000000;stroke-width:0.40000001"
     transform="matrix(1,0,0,-1,-211.9296,-85.35823)">
    <path
       d="m 209.53198,-93.69121 h 36.17993 v 16.66595 h -36.17993 z"
       id="path1287"
       inkscape:connector-curvature="0" />
  </g>
  <path
     style="fill:none;stroke:#000000;stroke-width:0.40000001"
     inkscape:connector-curvature="0"
     id="path1315"
     d="m 193.15702,5.8206675e-8 h -7.46279" />
  <g
     style="fill:#000000;stroke:#000000;stroke-width:0.40000001"
     id="g1325"
     transform="matrix(1,0,0,-1,239.89972,-85.35823)">
    <g
       style="fill:#000000"
       id="g1323">
      <text
         id="text1321"
         font-size="10"
         transform="scale(1,-1)"
         style="font-size:10px;text-anchor:middle;stroke:none">
        <g
           style="fill:#000000"
           id="g1319">
          <g
             style="stroke:none"
             id="g1317" />
        </g>
      </text>
    </g>
  </g>
  <path
     style="fill:none;stroke:#000000;stroke-width:0.40000001"
     inkscape:connector-curvature="0"
     id="path1327"
     d="m 40.612118,-85.35823 h -6.62981" />
  <g
     style="fill:#000000;stroke:#000000;stroke-width:0.40000001"
     id="g1337"
     transform="matrix(1,0,0,-1,239.89972,-56.90549)">
    <g
       style="fill:#000000"
       id="g1335">
      <text
         id="text1333"
         font-size="10"
         transform="scale(1,-1)"
         style="font-size:10px;text-anchor:middle;stroke:none">
        <g
           style="fill:#000000"
           id="g1331">
          <g
             style="stroke:none"
             id="g1329" />
        </g>
      </text>
    </g>
  </g>
  <path
     style="fill:none;stroke:#000000;stroke-width:0.40000001"
     inkscape:connector-curvature="0"
     id="path1339"
     d="m 40.612118,-56.90549 h -6.62981" />
  <g
     style="fill:#000000;stroke:#000000;stroke-width:0.40000001"
     id="g1349"
     transform="matrix(1,0,0,-1,239.89972,-28.45274)">
    <g
       style="fill:#000000"
       id="g1347">
      <text
         id="text1345"
         font-size="10"
         transform="scale(1,-1)"
         style="font-size:10px;text-anchor:middle;stroke:none">
        <g
           style="fill:#000000"
           id="g1343">
          <g
             style="stroke:none"
             id="g1341" />
        </g>
      </text>
    </g>
  </g>
  <path
     style="fill:none;stroke:#000000;stroke-width:0.40000001"
     inkscape:connector-curvature="0"
     id="path1351"
     d="m 40.612118,-28.45274 h -6.62981" />
  <g
     style="fill:#000000;stroke:#000000;stroke-width:0.40000001"
     id="g1361"
     transform="matrix(1,0,0,-1,239.89972,5.8206677e-8)">
    <g
       style="fill:#000000"
       id="g1359">
      <text
         id="text1357"
         font-size="10"
         transform="scale(1,-1)"
         style="font-size:10px;text-anchor:middle;stroke:none">
        <g
           style="fill:#000000"
           id="g1355">
          <g
             style="stroke:none"
             id="g1353" />
        </g>
      </text>
    </g>
  </g>
  <path
     style="fill:none;stroke:#000000;stroke-width:0.40000001"
     inkscape:connector-curvature="0"
     id="path1363"
     d="m 40.612118,5.8206675e-8 h -6.62981" />
  <g
     id="g2194"
     transform="matrix(1.0370896,0,0,1,-37.846562,-224.11141)"
     style="stroke-width:0.98195565">
    <g
       word-spacing="normal"
       letter-spacing="normal"
       font-size-adjust="none"
       font-stretch="normal"
       font-weight="normal"
       font-variant="normal"
       font-style="normal"
       stroke-miterlimit="10.433"
       xml:space="preserve"
       transform="matrix(0.14632026,0,0,-0.14632026,-25.606045,200.54637)"
       id="content"
       style="font-style:normal;font-variant:normal;font-weight:normal;font-stretch:normal;letter-spacing:normal;word-spacing:normal;text-anchor:start;fill:none;fill-opacity:1;fill-rule:evenodd;stroke:#000000;stroke-width:0.98195565;stroke-linecap:butt;stroke-linejoin:miter;stroke-miterlimit:10.43299961;stroke-dasharray:none;stroke-dashoffset:0;stroke-opacity:1"><path
         id="path2181"
         d="m 481.38,423.14 0.47,0.11 0.48,0.12 0.48,0.14 0.48,0.15 0.49,0.16 0.48,0.18 0.48,0.19 0.47,0.2 0.47,0.22 0.47,0.23 0.46,0.24 0.45,0.25 0.43,0.27 0.43,0.28 0.42,0.29 0.4,0.3 0.39,0.31 0.37,0.32 0.36,0.34 0.33,0.35 0.32,0.35 0.29,0.37 0.28,0.38 0.25,0.39 0.22,0.4 0.2,0.41 0.17,0.42 0.15,0.43 0.11,0.44 0.08,0.45 0.05,0.46 0.02,0.47 c 0,4.28 -4.48,7.47 -11,7.47 h -14.2 c -1,0 -1.45,0 -1.45,-1 0,-0.55 0.45,-0.55 1.4,-0.55 0.1,0 1.05,0 1.89,-0.09 0.89,-0.11 1.35,-0.16 1.35,-0.8 0,-0.2 -0.05,-0.36 -0.21,-0.95 l -6.67,-26.75 c -0.5,-1.95 -0.59,-2.34 -4.53,-2.34 -0.91,0 -1.34,0 -1.34,-1 0,-0.55 0.59,-0.55 0.68,-0.55 1.41,0 4.89,0.16 6.29,0.16 1.39,0 4.93,-0.16 6.32,-0.16 0.41,0 1,0 1,1 0,0.55 -0.45,0.55 -1.39,0.55 -1.84,0 -3.25,0 -3.25,0.89 0,0.29 0.11,0.54 0.16,0.84 l 3.28,13.2 h 5.94 l -0.05,1.11 h -5.59 l 3.25,13 c 0.29,1.19 0.43,1.69 1.39,1.85 0.45,0.04 2.04,0.04 3.03,0.04 3.55,0 9.08,0 9.08,-4.93 0,-1.69 -0.8,-5.13 -2.75,-7.07 -1.28,-1.29 -3.92,-2.89 -8.41,-2.89 l 0.05,-1.11 c 4.53,0 5.42,-2.78 5.42,-4.53 0,-0.75 -0.39,-2.28 -0.69,-3.44 -0.36,-1.39 -0.79,-3.23 -0.79,-4.23 0,-5.37 5.96,-5.37 6.62,-5.37 4.23,0 5.97,5.03 5.97,5.73 0,0.59 -0.55,0.59 -0.59,0.59 -0.46,0 -0.55,-0.36 -0.65,-0.7 -1.25,-3.69 -3.39,-4.53 -4.54,-4.53 -1.64,0 -1.99,1.09 -1.99,3.05 0,1.53 0.3,4.07 0.5,5.67 0.1,0.7 0.21,1.64 0.21,2.34 0,3.83 -3.35,5.38 -4.69,5.88 z"
         inkscape:connector-curvature="0"
         style="fill:#000000;stroke-width:0" /><path
         id="path2183"
         d="m 499.18,401.82 0.17,0.17 0.16,0.17 0.17,0.16 0.17,0.17 0.18,0.17 0.09,0.09 0.1,0.1 0.1,0.09 0.11,0.1 0.11,0.1 0.11,0.11 0.13,0.11 0.13,0.11 0.13,0.12 0.15,0.13 0.15,0.13 0.16,0.14 0.17,0.14 0.17,0.15 0.19,0.16 0.2,0.16 0.21,0.17 0.22,0.18 0.23,0.19 0.25,0.2 0.25,0.21 0.27,0.21 c 0.74,0.6 3.35,2.69 4.36,3.66 2.13,2.09 3.46,3.87 3.46,4.29 0,0.41 -0.46,0.41 -0.6,0.41 -0.31,0 -0.42,-0.06 -0.59,-0.34 -1.08,-1.6 -1.81,-2.13 -2.64,-2.13 -0.42,0 -0.95,0.03 -2,1.05 -1.17,1.19 -1.94,1.42 -2.75,1.42 -2.78,0 -4.67,-3.03 -4.67,-4.06 0,-0.33 0.36,-0.42 0.59,-0.42 0.42,0 0.5,0.09 0.63,0.48 0.53,1.22 2.48,1.3 3.04,1.3 0.8,0 1.71,-0.22 2.19,-0.33 1.92,-0.41 2.16,-0.41 3.03,-0.41 -0.91,-0.95 -1.53,-1.57 -4.84,-4.22 -2.72,-2.15 -3.66,-3.03 -4.32,-3.73 -2.09,-2.05 -3.1,-3.58 -3.1,-3.91 0,-0.4 0.45,-0.4 0.59,-0.4 0.34,0 0.42,0.06 0.59,0.34 0.94,1.33 2.02,2.13 3.21,2.13 0.42,0 0.93,-0.03 1.87,-0.91 1.09,-1.05 1.78,-1.56 2.91,-1.56 3.72,0 6.06,4.22 6.06,5.39 0,0.42 -0.39,0.45 -0.59,0.45 -0.43,0 -0.5,-0.17 -0.63,-0.55 -0.67,-1.75 -2.72,-2.57 -4.44,-2.57 -0.79,0 -1.67,0.17 -2.53,0.37 -1.61,0.35 -1.89,0.35 -2.51,0.35 -0.08,0 -0.6,0 -0.8,-0.04 z"
         inkscape:connector-curvature="0"
         style="fill:#000000;stroke-width:0" /><path
         id="path2185"
         d="m 532.84,394.25 v 0.02 0.03 0.01 0.02 0.01 l -0.01,0.02 v 0.01 l -0.01,0.02 -0.01,0.02 -0.01,0.02 -0.01,0.02 -0.02,0.03 -0.01,0.02 -0.02,0.03 -0.02,0.03 -0.03,0.03 -0.02,0.03 -0.03,0.04 -0.02,0.02 -0.01,0.02 -0.02,0.02 -0.02,0.02 -0.02,0.02 -0.02,0.03 -0.02,0.02 -0.02,0.02 -0.02,0.03 -0.03,0.02 -0.02,0.03 -0.03,0.03 -0.03,0.03 -0.02,0.03 -0.03,0.03 -0.03,0.03 -0.03,0.03 -0.03,0.03 -0.04,0.04 -0.03,0.03 -0.04,0.04 -0.03,0.03 -0.04,0.04 -0.04,0.04 c -6.22,6.28 -7.81,15.69 -7.81,23.31 0,8.67 1.89,17.35 8.01,23.56 0.64,0.61 0.64,0.71 0.64,0.86 0,0.35 -0.18,0.49 -0.48,0.49 -0.5,0 -4.98,-3.38 -7.92,-9.7 -2.55,-5.49 -3.14,-11.02 -3.14,-15.21 0,-3.89 0.54,-9.9 3.28,-15.54 2.98,-6.13 7.28,-9.36 7.78,-9.36 0.3,0 0.48,0.14 0.48,0.5 z"
         inkscape:connector-curvature="0"
         style="fill:#000000;stroke-width:0" /><path
         id="path2187"
         d="m 558.35,431.11 v 0.31 l -0.01,0.34 -0.02,0.36 -0.02,0.37 -0.03,0.39 -0.04,0.39 -0.05,0.41 -0.05,0.41 -0.07,0.42 -0.08,0.43 -0.09,0.42 -0.1,0.43 -0.11,0.42 -0.13,0.42 -0.14,0.41 -0.15,0.41 -0.17,0.4 -0.18,0.38 -0.2,0.37 -0.22,0.36 -0.24,0.34 -0.25,0.32 -0.27,0.3 -0.29,0.27 -0.31,0.25 -0.16,0.12 -0.17,0.1 -0.17,0.1 -0.18,0.1 -0.18,0.08 -0.19,0.08 -0.2,0.07 -0.2,0.06 -0.2,0.05 -0.21,0.05 -0.22,0.03 -0.22,0.02 -0.23,0.02 h -0.24 l -0.04,-1.09 c 2.43,0 2.73,-3.19 2.73,-6.03 0,-2.44 -0.39,-4.99 -1.59,-9.92 h -10.41 c 0.85,3.2 1.85,7.18 3.83,10.72 1.36,2.43 3.19,5.23 5.44,5.23 l 0.04,1.09 c -6.92,0 -14.59,-14.04 -14.59,-25.45 0,-4.69 1.44,-10.22 5.98,-10.22 v 1.1 c -1.65,0 -2.7,1.45 -2.7,6.07 0,2.1 0.3,4.99 1.6,9.86 h 10.37 c -0.55,-2.28 -1.59,-6.51 -3.5,-10.11 -1.74,-3.39 -3.62,-5.82 -5.77,-5.82 v -1.1 c 7.02,0 14.6,14.3 14.6,25.46 z"
         inkscape:connector-curvature="0"
         style="fill:#000000;stroke-width:0" /><path
         id="path2189"
         d="m 570.75,420.92 v 0.04 0.04 0.05 0.04 0.03 0.04 0.04 0.03 l -0.01,0.04 v 0.03 0.03 0.03 0.03 l -0.01,0.03 v 0.03 l -0.01,0.02 v 0.03 0.02 l -0.01,0.03 v 0.02 l -0.02,0.04 -0.01,0.04 -0.02,0.03 -0.02,0.03 -0.02,0.03 -0.02,0.03 -0.03,0.02 -0.03,0.02 -0.04,0.02 -0.03,0.01 -0.04,0.01 -0.05,0.02 h -0.02 -0.03 l -0.02,0.01 h -0.03 l -0.03,0.01 h -0.02 -0.03 -0.03 -0.04 l -0.03,0.01 h -0.03 -0.04 -0.04 -0.03 -0.04 -0.04 -0.04 -0.05 -0.04 -0.05 c -2.23,-2.2 -5.39,-2.23 -6.82,-2.23 v -1.25 c 0.84,0 3.14,0 5.04,0.97 v -17.77 c 0,-1.16 0,-1.61 -3.48,-1.61 h -1.32 v -1.25 c 0.63,0.03 4.91,0.14 6.21,0.14 1.08,0 5.47,-0.11 6.23,-0.14 v 1.25 h -1.33 c -3.48,0 -3.48,0.45 -3.48,1.61 z"
         inkscape:connector-curvature="0"
         style="fill:#000000;stroke-width:0" /><path
         id="path2191"
         d="m 595.79,418.65 v 0.37 l -0.01,0.39 -0.01,0.39 -0.01,0.41 -0.04,0.84 -0.06,0.88 -0.08,0.92 -0.11,0.95 -0.13,0.97 -0.17,1.01 -0.19,1.02 -0.23,1.03 -0.27,1.05 -0.31,1.06 -0.34,1.07 -0.4,1.07 -0.21,0.53 -0.22,0.53 -0.24,0.53 -0.25,0.53 c -2.99,6.12 -7.27,9.36 -7.77,9.36 -0.29,0 -0.5,-0.19 -0.5,-0.49 0,-0.15 0,-0.25 0.94,-1.15 4.89,-4.92 7.73,-12.85 7.73,-23.27 0,-8.51 -1.84,-17.28 -8.03,-23.56 -0.64,-0.59 -0.64,-0.7 -0.64,-0.84 0,-0.3 0.21,-0.5 0.5,-0.5 0.5,0 4.97,3.39 7.92,9.71 2.54,5.47 3.13,11 3.13,15.19 z"
         inkscape:connector-curvature="0"
         style="fill:#000000;stroke-width:0" /></g>  </g>
  <g
     id="g2356"
     transform="translate(-36.183582,-195.74241)">
    <g
       word-spacing="normal"
       letter-spacing="normal"
       font-size-adjust="none"
       font-stretch="normal"
       font-weight="normal"
       font-variant="normal"
       font-style="normal"
       stroke-miterlimit="10.433"
       xml:space="preserve"
       transform="matrix(0.14632026,0,0,-0.14632026,-25.606045,200.54637)"
       id="g2354"
       style="font-style:normal;font-variant:normal;font-weight:normal;font-stretch:normal;letter-spacing:normal;word-spacing:normal;text-anchor:start;fill:none;fill-opacity:1;fill-rule:evenodd;stroke:#000000;stroke-linecap:butt;stroke-linejoin:miter;stroke-miterlimit:10.43299961;stroke-dasharray:none;stroke-dashoffset:0;stroke-opacity:1"><path
         id="path2342"
         d="m 481.38,423.14 0.47,0.11 0.48,0.12 0.48,0.14 0.48,0.15 0.49,0.16 0.48,0.18 0.48,0.19 0.47,0.2 0.47,0.22 0.47,0.23 0.46,0.24 0.45,0.25 0.43,0.27 0.43,0.28 0.42,0.29 0.4,0.3 0.39,0.31 0.37,0.32 0.36,0.34 0.33,0.35 0.32,0.35 0.29,0.37 0.28,0.38 0.25,0.39 0.22,0.4 0.2,0.41 0.17,0.42 0.15,0.43 0.11,0.44 0.08,0.45 0.05,0.46 0.02,0.47 c 0,4.28 -4.48,7.47 -11,7.47 h -14.2 c -1,0 -1.45,0 -1.45,-1 0,-0.55 0.45,-0.55 1.4,-0.55 0.1,0 1.05,0 1.89,-0.09 0.89,-0.11 1.35,-0.16 1.35,-0.8 0,-0.2 -0.05,-0.36 -0.21,-0.95 l -6.67,-26.75 c -0.5,-1.95 -0.59,-2.34 -4.53,-2.34 -0.91,0 -1.34,0 -1.34,-1 0,-0.55 0.59,-0.55 0.68,-0.55 1.41,0 4.89,0.16 6.29,0.16 1.39,0 4.93,-0.16 6.32,-0.16 0.41,0 1,0 1,1 0,0.55 -0.45,0.55 -1.39,0.55 -1.84,0 -3.25,0 -3.25,0.89 0,0.29 0.11,0.54 0.16,0.84 l 3.28,13.2 h 5.94 l -0.05,1.11 h -5.59 l 3.25,13 c 0.29,1.19 0.43,1.69 1.39,1.85 0.45,0.04 2.04,0.04 3.03,0.04 3.55,0 9.08,0 9.08,-4.93 0,-1.69 -0.8,-5.13 -2.75,-7.07 -1.28,-1.29 -3.92,-2.89 -8.41,-2.89 l 0.05,-1.11 c 4.53,0 5.42,-2.78 5.42,-4.53 0,-0.75 -0.39,-2.28 -0.69,-3.44 -0.36,-1.39 -0.79,-3.23 -0.79,-4.23 0,-5.37 5.96,-5.37 6.62,-5.37 4.23,0 5.97,5.03 5.97,5.73 0,0.59 -0.55,0.59 -0.59,0.59 -0.46,0 -0.55,-0.36 -0.65,-0.7 -1.25,-3.69 -3.39,-4.53 -4.54,-4.53 -1.64,0 -1.99,1.09 -1.99,3.05 0,1.53 0.3,4.07 0.5,5.67 0.1,0.7 0.21,1.64 0.21,2.34 0,3.83 -3.35,5.38 -4.69,5.88 z"
         inkscape:connector-curvature="0"
         style="fill:#000000;stroke-width:0" /><path
         id="path2344"
         d="m 499.18,401.82 0.17,0.17 0.16,0.17 0.17,0.16 0.17,0.17 0.18,0.17 0.09,0.09 0.1,0.1 0.1,0.09 0.11,0.1 0.11,0.1 0.11,0.11 0.13,0.11 0.13,0.11 0.13,0.12 0.15,0.13 0.15,0.13 0.16,0.14 0.17,0.14 0.17,0.15 0.19,0.16 0.2,0.16 0.21,0.17 0.22,0.18 0.23,0.19 0.25,0.2 0.25,0.21 0.27,0.21 c 0.74,0.6 3.35,2.69 4.36,3.66 2.13,2.09 3.46,3.87 3.46,4.29 0,0.41 -0.46,0.41 -0.6,0.41 -0.31,0 -0.42,-0.06 -0.59,-0.34 -1.08,-1.6 -1.81,-2.13 -2.64,-2.13 -0.42,0 -0.95,0.03 -2,1.05 -1.17,1.19 -1.94,1.42 -2.75,1.42 -2.78,0 -4.67,-3.03 -4.67,-4.06 0,-0.33 0.36,-0.42 0.59,-0.42 0.42,0 0.5,0.09 0.63,0.48 0.53,1.22 2.48,1.3 3.04,1.3 0.8,0 1.71,-0.22 2.19,-0.33 1.92,-0.41 2.16,-0.41 3.03,-0.41 -0.91,-0.95 -1.53,-1.57 -4.84,-4.22 -2.72,-2.15 -3.66,-3.03 -4.32,-3.73 -2.09,-2.05 -3.1,-3.58 -3.1,-3.91 0,-0.4 0.45,-0.4 0.59,-0.4 0.34,0 0.42,0.06 0.59,0.34 0.94,1.33 2.02,2.13 3.21,2.13 0.42,0 0.93,-0.03 1.87,-0.91 1.09,-1.05 1.78,-1.56 2.91,-1.56 3.72,0 6.06,4.22 6.06,5.39 0,0.42 -0.39,0.45 -0.59,0.45 -0.43,0 -0.5,-0.17 -0.63,-0.55 -0.67,-1.75 -2.72,-2.57 -4.44,-2.57 -0.79,0 -1.67,0.17 -2.53,0.37 -1.61,0.35 -1.89,0.35 -2.51,0.35 -0.08,0 -0.6,0 -0.8,-0.04 z"
         inkscape:connector-curvature="0"
         style="fill:#000000;stroke-width:0" /><path
         id="path2346"
         d="m 532.84,394.25 v 0.02 0.03 0.01 0.02 0.01 l -0.01,0.02 v 0.01 l -0.01,0.02 -0.01,0.02 -0.01,0.02 -0.01,0.02 -0.02,0.03 -0.01,0.02 -0.02,0.03 -0.02,0.03 -0.03,0.03 -0.02,0.03 -0.03,0.04 -0.02,0.02 -0.01,0.02 -0.02,0.02 -0.02,0.02 -0.02,0.02 -0.02,0.03 -0.02,0.02 -0.02,0.02 -0.02,0.03 -0.03,0.02 -0.02,0.03 -0.03,0.03 -0.03,0.03 -0.02,0.03 -0.03,0.03 -0.03,0.03 -0.03,0.03 -0.03,0.03 -0.04,0.04 -0.03,0.03 -0.04,0.04 -0.03,0.03 -0.04,0.04 -0.04,0.04 c -6.22,6.28 -7.81,15.69 -7.81,23.31 0,8.67 1.89,17.35 8.01,23.56 0.64,0.61 0.64,0.71 0.64,0.86 0,0.35 -0.18,0.49 -0.48,0.49 -0.5,0 -4.98,-3.38 -7.92,-9.7 -2.55,-5.49 -3.14,-11.02 -3.14,-15.21 0,-3.89 0.54,-9.9 3.28,-15.54 2.98,-6.13 7.28,-9.36 7.78,-9.36 0.3,0 0.48,0.14 0.48,0.5 z"
         inkscape:connector-curvature="0"
         style="fill:#000000;stroke-width:0" /><path
         id="path2348"
         d="m 558.35,431.11 v 0.31 l -0.01,0.34 -0.02,0.36 -0.02,0.37 -0.03,0.39 -0.04,0.39 -0.05,0.41 -0.05,0.41 -0.07,0.42 -0.08,0.43 -0.09,0.42 -0.1,0.43 -0.11,0.42 -0.13,0.42 -0.14,0.41 -0.15,0.41 -0.17,0.4 -0.18,0.38 -0.2,0.37 -0.22,0.36 -0.24,0.34 -0.25,0.32 -0.27,0.3 -0.29,0.27 -0.31,0.25 -0.16,0.12 -0.17,0.1 -0.17,0.1 -0.18,0.1 -0.18,0.08 -0.19,0.08 -0.2,0.07 -0.2,0.06 -0.2,0.05 -0.21,0.05 -0.22,0.03 -0.22,0.02 -0.23,0.02 h -0.24 l -0.04,-1.09 c 2.43,0 2.73,-3.19 2.73,-6.03 0,-2.44 -0.39,-4.99 -1.59,-9.92 h -10.41 c 0.85,3.2 1.85,7.18 3.83,10.72 1.36,2.43 3.19,5.23 5.44,5.23 l 0.04,1.09 c -6.92,0 -14.59,-14.04 -14.59,-25.45 0,-4.69 1.44,-10.22 5.98,-10.22 v 1.1 c -1.65,0 -2.7,1.45 -2.7,6.07 0,2.1 0.3,4.99 1.6,9.86 h 10.37 c -0.55,-2.28 -1.59,-6.51 -3.5,-10.11 -1.74,-3.39 -3.62,-5.82 -5.77,-5.82 v -1.1 c 7.02,0 14.6,14.3 14.6,25.46 z"
         inkscape:connector-curvature="0"
         style="fill:#000000;stroke-width:0" /><path
         id="path2350"
         d="m 576.67,405.11 h -1.19 c -0.09,-0.77 -0.45,-2.83 -0.9,-3.18 -0.27,-0.2 -2.96,-0.2 -3.44,-0.2 h -6.42 c 3.66,3.23 4.87,4.2 6.97,5.84 2.58,2.07 4.98,4.22 4.98,7.54 0,4.21 -3.69,6.79 -8.15,6.79 -4.32,0 -7.25,-3.03 -7.25,-6.23 0,-1.78 1.5,-1.96 1.85,-1.96 0.83,0 1.85,0.6 1.85,1.85 0,0.62 -0.25,1.84 -2.06,1.84 1.07,2.47 3.45,3.24 5.09,3.24 3.48,0 5.3,-2.71 5.3,-5.53 0,-3.04 -2.16,-5.44 -3.28,-6.69 l -8.4,-8.3 c -0.35,-0.31 -0.35,-0.39 -0.35,-1.36 h 14.35 z"
         inkscape:connector-curvature="0"
         style="fill:#000000;stroke-width:0" /><path
         id="path2352"
         d="m 595.79,418.65 v 0.37 l -0.01,0.39 -0.01,0.39 -0.01,0.41 -0.04,0.84 -0.06,0.88 -0.08,0.92 -0.11,0.95 -0.13,0.97 -0.17,1.01 -0.19,1.02 -0.23,1.03 -0.27,1.05 -0.31,1.06 -0.34,1.07 -0.4,1.07 -0.21,0.53 -0.22,0.53 -0.24,0.53 -0.25,0.53 c -2.99,6.12 -7.27,9.36 -7.77,9.36 -0.29,0 -0.5,-0.19 -0.5,-0.49 0,-0.15 0,-0.25 0.94,-1.15 4.89,-4.92 7.73,-12.85 7.73,-23.27 0,-8.51 -1.84,-17.28 -8.03,-23.56 -0.64,-0.59 -0.64,-0.7 -0.64,-0.84 0,-0.3 0.21,-0.5 0.5,-0.5 0.5,0 4.97,3.39 7.92,9.71 2.54,5.47 3.13,11 3.13,15.19 z"
         inkscape:connector-curvature="0"
         style="fill:#000000;stroke-width:0" /></g>  </g>
  <g
     id="g2526"
     transform="translate(-36.405762,-167.08092)">
    <g
       word-spacing="normal"
       letter-spacing="normal"
       font-size-adjust="none"
       font-stretch="normal"
       font-weight="normal"
       font-variant="normal"
       font-style="normal"
       stroke-miterlimit="10.433"
       xml:space="preserve"
       transform="matrix(0.14632026,0,0,-0.14632026,-25.606045,200.54637)"
       id="g2524"
       style="font-style:normal;font-variant:normal;font-weight:normal;font-stretch:normal;letter-spacing:normal;word-spacing:normal;text-anchor:start;fill:none;fill-opacity:1;fill-rule:evenodd;stroke:#000000;stroke-linecap:butt;stroke-linejoin:miter;stroke-miterlimit:10.43299961;stroke-dasharray:none;stroke-dashoffset:0;stroke-opacity:1"><path
         id="path2512"
         d="m 481.38,423.14 0.47,0.11 0.48,0.12 0.48,0.14 0.48,0.15 0.49,0.16 0.48,0.18 0.48,0.19 0.47,0.2 0.47,0.22 0.47,0.23 0.46,0.24 0.45,0.25 0.43,0.27 0.43,0.28 0.42,0.29 0.4,0.3 0.39,0.31 0.37,0.32 0.36,0.34 0.33,0.35 0.32,0.35 0.29,0.37 0.28,0.38 0.25,0.39 0.22,0.4 0.2,0.41 0.17,0.42 0.15,0.43 0.11,0.44 0.08,0.45 0.05,0.46 0.02,0.47 c 0,4.28 -4.48,7.47 -11,7.47 h -14.2 c -1,0 -1.45,0 -1.45,-1 0,-0.55 0.45,-0.55 1.4,-0.55 0.1,0 1.05,0 1.89,-0.09 0.89,-0.11 1.35,-0.16 1.35,-0.8 0,-0.2 -0.05,-0.36 -0.21,-0.95 l -6.67,-26.75 c -0.5,-1.95 -0.59,-2.34 -4.53,-2.34 -0.91,0 -1.34,0 -1.34,-1 0,-0.55 0.59,-0.55 0.68,-0.55 1.41,0 4.89,0.16 6.29,0.16 1.39,0 4.93,-0.16 6.32,-0.16 0.41,0 1,0 1,1 0,0.55 -0.45,0.55 -1.39,0.55 -1.84,0 -3.25,0 -3.25,0.89 0,0.29 0.11,0.54 0.16,0.84 l 3.28,13.2 h 5.94 l -0.05,1.11 h -5.59 l 3.25,13 c 0.29,1.19 0.43,1.69 1.39,1.85 0.45,0.04 2.04,0.04 3.03,0.04 3.55,0 9.08,0 9.08,-4.93 0,-1.69 -0.8,-5.13 -2.75,-7.07 -1.28,-1.29 -3.92,-2.89 -8.41,-2.89 l 0.05,-1.11 c 4.53,0 5.42,-2.78 5.42,-4.53 0,-0.75 -0.39,-2.28 -0.69,-3.44 -0.36,-1.39 -0.79,-3.23 -0.79,-4.23 0,-5.37 5.96,-5.37 6.62,-5.37 4.23,0 5.97,5.03 5.97,5.73 0,0.59 -0.55,0.59 -0.59,0.59 -0.46,0 -0.55,-0.36 -0.65,-0.7 -1.25,-3.69 -3.39,-4.53 -4.54,-4.53 -1.64,0 -1.99,1.09 -1.99,3.05 0,1.53 0.3,4.07 0.5,5.67 0.1,0.7 0.21,1.64 0.21,2.34 0,3.83 -3.35,5.38 -4.69,5.88 z"
         inkscape:connector-curvature="0"
         style="fill:#000000;stroke-width:0" /><path
         id="path2514"
         d="m 499.18,401.82 0.17,0.17 0.16,0.17 0.17,0.16 0.17,0.17 0.18,0.17 0.09,0.09 0.1,0.1 0.1,0.09 0.11,0.1 0.11,0.1 0.11,0.11 0.13,0.11 0.13,0.11 0.13,0.12 0.15,0.13 0.15,0.13 0.16,0.14 0.17,0.14 0.17,0.15 0.19,0.16 0.2,0.16 0.21,0.17 0.22,0.18 0.23,0.19 0.25,0.2 0.25,0.21 0.27,0.21 c 0.74,0.6 3.35,2.69 4.36,3.66 2.13,2.09 3.46,3.87 3.46,4.29 0,0.41 -0.46,0.41 -0.6,0.41 -0.31,0 -0.42,-0.06 -0.59,-0.34 -1.08,-1.6 -1.81,-2.13 -2.64,-2.13 -0.42,0 -0.95,0.03 -2,1.05 -1.17,1.19 -1.94,1.42 -2.75,1.42 -2.78,0 -4.67,-3.03 -4.67,-4.06 0,-0.33 0.36,-0.42 0.59,-0.42 0.42,0 0.5,0.09 0.63,0.48 0.53,1.22 2.48,1.3 3.04,1.3 0.8,0 1.71,-0.22 2.19,-0.33 1.92,-0.41 2.16,-0.41 3.03,-0.41 -0.91,-0.95 -1.53,-1.57 -4.84,-4.22 -2.72,-2.15 -3.66,-3.03 -4.32,-3.73 -2.09,-2.05 -3.1,-3.58 -3.1,-3.91 0,-0.4 0.45,-0.4 0.59,-0.4 0.34,0 0.42,0.06 0.59,0.34 0.94,1.33 2.02,2.13 3.21,2.13 0.42,0 0.93,-0.03 1.87,-0.91 1.09,-1.05 1.78,-1.56 2.91,-1.56 3.72,0 6.06,4.22 6.06,5.39 0,0.42 -0.39,0.45 -0.59,0.45 -0.43,0 -0.5,-0.17 -0.63,-0.55 -0.67,-1.75 -2.72,-2.57 -4.44,-2.57 -0.79,0 -1.67,0.17 -2.53,0.37 -1.61,0.35 -1.89,0.35 -2.51,0.35 -0.08,0 -0.6,0 -0.8,-0.04 z"
         inkscape:connector-curvature="0"
         style="fill:#000000;stroke-width:0" /><path
         id="path2516"
         d="m 532.84,394.25 v 0.02 0.03 0.01 0.02 0.01 l -0.01,0.02 v 0.01 l -0.01,0.02 -0.01,0.02 -0.01,0.02 -0.01,0.02 -0.02,0.03 -0.01,0.02 -0.02,0.03 -0.02,0.03 -0.03,0.03 -0.02,0.03 -0.03,0.04 -0.02,0.02 -0.01,0.02 -0.02,0.02 -0.02,0.02 -0.02,0.02 -0.02,0.03 -0.02,0.02 -0.02,0.02 -0.02,0.03 -0.03,0.02 -0.02,0.03 -0.03,0.03 -0.03,0.03 -0.02,0.03 -0.03,0.03 -0.03,0.03 -0.03,0.03 -0.03,0.03 -0.04,0.04 -0.03,0.03 -0.04,0.04 -0.03,0.03 -0.04,0.04 -0.04,0.04 c -6.22,6.28 -7.81,15.69 -7.81,23.31 0,8.67 1.89,17.35 8.01,23.56 0.64,0.61 0.64,0.71 0.64,0.86 0,0.35 -0.18,0.49 -0.48,0.49 -0.5,0 -4.98,-3.38 -7.92,-9.7 -2.55,-5.49 -3.14,-11.02 -3.14,-15.21 0,-3.89 0.54,-9.9 3.28,-15.54 2.98,-6.13 7.28,-9.36 7.78,-9.36 0.3,0 0.48,0.14 0.48,0.5 z"
         inkscape:connector-curvature="0"
         style="fill:#000000;stroke-width:0" /><path
         id="path2518"
         d="m 558.35,431.11 v 0.31 l -0.01,0.34 -0.02,0.36 -0.02,0.37 -0.03,0.39 -0.04,0.39 -0.05,0.41 -0.05,0.41 -0.07,0.42 -0.08,0.43 -0.09,0.42 -0.1,0.43 -0.11,0.42 -0.13,0.42 -0.14,0.41 -0.15,0.41 -0.17,0.4 -0.18,0.38 -0.2,0.37 -0.22,0.36 -0.24,0.34 -0.25,0.32 -0.27,0.3 -0.29,0.27 -0.31,0.25 -0.16,0.12 -0.17,0.1 -0.17,0.1 -0.18,0.1 -0.18,0.08 -0.19,0.08 -0.2,0.07 -0.2,0.06 -0.2,0.05 -0.21,0.05 -0.22,0.03 -0.22,0.02 -0.23,0.02 h -0.24 l -0.04,-1.09 c 2.43,0 2.73,-3.19 2.73,-6.03 0,-2.44 -0.39,-4.99 -1.59,-9.92 h -10.41 c 0.85,3.2 1.85,7.18 3.83,10.72 1.36,2.43 3.19,5.23 5.44,5.23 l 0.04,1.09 c -6.92,0 -14.59,-14.04 -14.59,-25.45 0,-4.69 1.44,-10.22 5.98,-10.22 v 1.1 c -1.65,0 -2.7,1.45 -2.7,6.07 0,2.1 0.3,4.99 1.6,9.86 h 10.37 c -0.55,-2.28 -1.59,-6.51 -3.5,-10.11 -1.74,-3.39 -3.62,-5.82 -5.77,-5.82 v -1.1 c 7.02,0 14.6,14.3 14.6,25.46 z"
         inkscape:connector-curvature="0"
         style="fill:#000000;stroke-width:0" /><path
         id="path2520"
         d="m 568.59,410.4 h 0.26 l 0.24,-0.02 0.25,-0.03 0.24,-0.04 0.23,-0.05 0.22,-0.06 0.23,-0.07 0.21,-0.08 0.21,-0.1 0.2,-0.1 0.2,-0.12 0.19,-0.12 0.18,-0.14 0.17,-0.15 0.17,-0.16 0.16,-0.17 0.15,-0.18 0.14,-0.19 0.14,-0.2 0.12,-0.22 0.12,-0.22 0.11,-0.24 0.1,-0.24 0.09,-0.26 0.08,-0.27 0.07,-0.28 0.06,-0.29 0.05,-0.3 0.04,-0.31 0.02,-0.32 0.02,-0.33 0.01,-0.35 c 0,-4.33 -2.52,-5.61 -4.54,-5.61 -1.39,0 -4.46,0.38 -5.92,2.44 1.63,0.06 2.02,1.22 2.02,1.95 0,1.11 -0.85,1.91 -1.92,1.91 -0.97,0 -1.96,-0.59 -1.96,-2.02 0,-3.28 3.63,-5.4 7.85,-5.4 4.84,0 8.18,3.25 8.18,6.73 0,2.72 -2.21,5.44 -6.06,6.24 3.66,1.33 4.99,3.93 4.99,6.06 0,2.75 -3.18,4.81 -7.03,4.81 -3.88,0 -6.83,-1.89 -6.83,-4.67 0,-1.19 0.76,-1.84 1.81,-1.84 1.08,0 1.76,0.79 1.76,1.76 0,1.02 -0.68,1.75 -1.76,1.81 1.22,1.55 3.61,1.93 4.91,1.93 1.56,0 3.76,-0.77 3.76,-3.8 0,-1.47 -0.48,-3.06 -1.39,-4.14 -1.16,-1.33 -2.12,-1.41 -3.87,-1.5 -0.88,-0.08 -0.94,-0.08 -1.11,-0.11 -0.08,0 -0.36,-0.06 -0.36,-0.45 0,-0.49 0.31,-0.49 0.9,-0.49 z"
         inkscape:connector-curvature="0"
         style="fill:#000000;stroke-width:0" /><path
         id="path2522"
         d="m 595.79,418.65 v 0.37 l -0.01,0.39 -0.01,0.39 -0.01,0.41 -0.04,0.84 -0.06,0.88 -0.08,0.92 -0.11,0.95 -0.13,0.97 -0.17,1.01 -0.19,1.02 -0.23,1.03 -0.27,1.05 -0.31,1.06 -0.34,1.07 -0.4,1.07 -0.21,0.53 -0.22,0.53 -0.24,0.53 -0.25,0.53 c -2.99,6.12 -7.27,9.36 -7.77,9.36 -0.29,0 -0.5,-0.19 -0.5,-0.49 0,-0.15 0,-0.25 0.94,-1.15 4.89,-4.92 7.73,-12.85 7.73,-23.27 0,-8.51 -1.84,-17.28 -8.03,-23.56 -0.64,-0.59 -0.64,-0.7 -0.64,-0.84 0,-0.3 0.21,-0.5 0.5,-0.5 0.5,0 4.97,3.39 7.92,9.71 2.54,5.47 3.13,11 3.13,15.19 z"
         inkscape:connector-curvature="0"
         style="fill:#000000;stroke-width:0" /></g>  </g>
  <g
     id="g2704"
     transform="translate(-36.850132,-138.64161)">
    <g
       word-spacing="normal"
       letter-spacing="normal"
       font-size-adjust="none"
       font-stretch="normal"
       font-weight="normal"
       font-variant="normal"
       font-style="normal"
       stroke-miterlimit="10.433"
       xml:space="preserve"
       transform="matrix(0.14632026,0,0,-0.14632026,-25.606045,200.54637)"
       id="g2702"
       style="font-style:normal;font-variant:normal;font-weight:normal;font-stretch:normal;letter-spacing:normal;word-spacing:normal;text-anchor:start;fill:none;fill-opacity:1;fill-rule:evenodd;stroke:#000000;stroke-linecap:butt;stroke-linejoin:miter;stroke-miterlimit:10.43299961;stroke-dasharray:none;stroke-dashoffset:0;stroke-opacity:1"><path
         id="path2690"
         d="m 481.38,423.14 0.47,0.11 0.48,0.12 0.48,0.14 0.48,0.15 0.49,0.16 0.48,0.18 0.48,0.19 0.47,0.2 0.47,0.22 0.47,0.23 0.46,0.24 0.45,0.25 0.43,0.27 0.43,0.28 0.42,0.29 0.4,0.3 0.39,0.31 0.37,0.32 0.36,0.34 0.33,0.35 0.32,0.35 0.29,0.37 0.28,0.38 0.25,0.39 0.22,0.4 0.2,0.41 0.17,0.42 0.15,0.43 0.11,0.44 0.08,0.45 0.05,0.46 0.02,0.47 c 0,4.28 -4.48,7.47 -11,7.47 h -14.2 c -1,0 -1.45,0 -1.45,-1 0,-0.55 0.45,-0.55 1.4,-0.55 0.1,0 1.05,0 1.89,-0.09 0.89,-0.11 1.35,-0.16 1.35,-0.8 0,-0.2 -0.05,-0.36 -0.21,-0.95 l -6.67,-26.75 c -0.5,-1.95 -0.59,-2.34 -4.53,-2.34 -0.91,0 -1.34,0 -1.34,-1 0,-0.55 0.59,-0.55 0.68,-0.55 1.41,0 4.89,0.16 6.29,0.16 1.39,0 4.93,-0.16 6.32,-0.16 0.41,0 1,0 1,1 0,0.55 -0.45,0.55 -1.39,0.55 -1.84,0 -3.25,0 -3.25,0.89 0,0.29 0.11,0.54 0.16,0.84 l 3.28,13.2 h 5.94 l -0.05,1.11 h -5.59 l 3.25,13 c 0.29,1.19 0.43,1.69 1.39,1.85 0.45,0.04 2.04,0.04 3.03,0.04 3.55,0 9.08,0 9.08,-4.93 0,-1.69 -0.8,-5.13 -2.75,-7.07 -1.28,-1.29 -3.92,-2.89 -8.41,-2.89 l 0.05,-1.11 c 4.53,0 5.42,-2.78 5.42,-4.53 0,-0.75 -0.39,-2.28 -0.69,-3.44 -0.36,-1.39 -0.79,-3.23 -0.79,-4.23 0,-5.37 5.96,-5.37 6.62,-5.37 4.23,0 5.97,5.03 5.97,5.73 0,0.59 -0.55,0.59 -0.59,0.59 -0.46,0 -0.55,-0.36 -0.65,-0.7 -1.25,-3.69 -3.39,-4.53 -4.54,-4.53 -1.64,0 -1.99,1.09 -1.99,3.05 0,1.53 0.3,4.07 0.5,5.67 0.1,0.7 0.21,1.64 0.21,2.34 0,3.83 -3.35,5.38 -4.69,5.88 z"
         inkscape:connector-curvature="0"
         style="fill:#000000;stroke-width:0" /><path
         id="path2692"
         d="m 499.18,401.82 0.17,0.17 0.16,0.17 0.17,0.16 0.17,0.17 0.18,0.17 0.09,0.09 0.1,0.1 0.1,0.09 0.11,0.1 0.11,0.1 0.11,0.11 0.13,0.11 0.13,0.11 0.13,0.12 0.15,0.13 0.15,0.13 0.16,0.14 0.17,0.14 0.17,0.15 0.19,0.16 0.2,0.16 0.21,0.17 0.22,0.18 0.23,0.19 0.25,0.2 0.25,0.21 0.27,0.21 c 0.74,0.6 3.35,2.69 4.36,3.66 2.13,2.09 3.46,3.87 3.46,4.29 0,0.41 -0.46,0.41 -0.6,0.41 -0.31,0 -0.42,-0.06 -0.59,-0.34 -1.08,-1.6 -1.81,-2.13 -2.64,-2.13 -0.42,0 -0.95,0.03 -2,1.05 -1.17,1.19 -1.94,1.42 -2.75,1.42 -2.78,0 -4.67,-3.03 -4.67,-4.06 0,-0.33 0.36,-0.42 0.59,-0.42 0.42,0 0.5,0.09 0.63,0.48 0.53,1.22 2.48,1.3 3.04,1.3 0.8,0 1.71,-0.22 2.19,-0.33 1.92,-0.41 2.16,-0.41 3.03,-0.41 -0.91,-0.95 -1.53,-1.57 -4.84,-4.22 -2.72,-2.15 -3.66,-3.03 -4.32,-3.73 -2.09,-2.05 -3.1,-3.58 -3.1,-3.91 0,-0.4 0.45,-0.4 0.59,-0.4 0.34,0 0.42,0.06 0.59,0.34 0.94,1.33 2.02,2.13 3.21,2.13 0.42,0 0.93,-0.03 1.87,-0.91 1.09,-1.05 1.78,-1.56 2.91,-1.56 3.72,0 6.06,4.22 6.06,5.39 0,0.42 -0.39,0.45 -0.59,0.45 -0.43,0 -0.5,-0.17 -0.63,-0.55 -0.67,-1.75 -2.72,-2.57 -4.44,-2.57 -0.79,0 -1.67,0.17 -2.53,0.37 -1.61,0.35 -1.89,0.35 -2.51,0.35 -0.08,0 -0.6,0 -0.8,-0.04 z"
         inkscape:connector-curvature="0"
         style="fill:#000000;stroke-width:0" /><path
         id="path2694"
         d="m 532.84,394.25 v 0.02 0.03 0.01 0.02 0.01 l -0.01,0.02 v 0.01 l -0.01,0.02 -0.01,0.02 -0.01,0.02 -0.01,0.02 -0.02,0.03 -0.01,0.02 -0.02,0.03 -0.02,0.03 -0.03,0.03 -0.02,0.03 -0.03,0.04 -0.02,0.02 -0.01,0.02 -0.02,0.02 -0.02,0.02 -0.02,0.02 -0.02,0.03 -0.02,0.02 -0.02,0.02 -0.02,0.03 -0.03,0.02 -0.02,0.03 -0.03,0.03 -0.03,0.03 -0.02,0.03 -0.03,0.03 -0.03,0.03 -0.03,0.03 -0.03,0.03 -0.04,0.04 -0.03,0.03 -0.04,0.04 -0.03,0.03 -0.04,0.04 -0.04,0.04 c -6.22,6.28 -7.81,15.69 -7.81,23.31 0,8.67 1.89,17.35 8.01,23.56 0.64,0.61 0.64,0.71 0.64,0.86 0,0.35 -0.18,0.49 -0.48,0.49 -0.5,0 -4.98,-3.38 -7.92,-9.7 -2.55,-5.49 -3.14,-11.02 -3.14,-15.21 0,-3.89 0.54,-9.9 3.28,-15.54 2.98,-6.13 7.28,-9.36 7.78,-9.36 0.3,0 0.48,0.14 0.48,0.5 z"
         inkscape:connector-curvature="0"
         style="fill:#000000;stroke-width:0" /><path
         id="path2696"
         d="m 558.35,431.11 v 0.31 l -0.01,0.34 -0.02,0.36 -0.02,0.37 -0.03,0.39 -0.04,0.39 -0.05,0.41 -0.05,0.41 -0.07,0.42 -0.08,0.43 -0.09,0.42 -0.1,0.43 -0.11,0.42 -0.13,0.42 -0.14,0.41 -0.15,0.41 -0.17,0.4 -0.18,0.38 -0.2,0.37 -0.22,0.36 -0.24,0.34 -0.25,0.32 -0.27,0.3 -0.29,0.27 -0.31,0.25 -0.16,0.12 -0.17,0.1 -0.17,0.1 -0.18,0.1 -0.18,0.08 -0.19,0.08 -0.2,0.07 -0.2,0.06 -0.2,0.05 -0.21,0.05 -0.22,0.03 -0.22,0.02 -0.23,0.02 h -0.24 l -0.04,-1.09 c 2.43,0 2.73,-3.19 2.73,-6.03 0,-2.44 -0.39,-4.99 -1.59,-9.92 h -10.41 c 0.85,3.2 1.85,7.18 3.83,10.72 1.36,2.43 3.19,5.23 5.44,5.23 l 0.04,1.09 c -6.92,0 -14.59,-14.04 -14.59,-25.45 0,-4.69 1.44,-10.22 5.98,-10.22 v 1.1 c -1.65,0 -2.7,1.45 -2.7,6.07 0,2.1 0.3,4.99 1.6,9.86 h 10.37 c -0.55,-2.28 -1.59,-6.51 -3.5,-10.11 -1.74,-3.39 -3.62,-5.82 -5.77,-5.82 v -1.1 c 7.02,0 14.6,14.3 14.6,25.46 z"
         inkscape:connector-curvature="0"
         style="fill:#000000;stroke-width:0" /><path
         id="path2698"
         d="m 577.52,404.48 v 1.25 h -3.88 v 15.55 c 0,0.72 0,0.97 -0.76,0.97 -0.43,0 -0.57,0 -0.91,-0.49 l -11.53,-16.03 v -1.25 h 10.25 l 0.23,1.25 h -9.2 l 9.2,12.75 v -12.75 l -0.23,-1.25 v -2.86 c 0,-1.19 0,-1.61 -2.83,-1.61 h -0.94 v -1.25 c 1.74,0.06 3.97,0.14 5.22,0.14 1.3,0 3.52,-0.08 5.27,-0.14 v 1.25 h -0.94 c -2.83,0 -2.83,0.42 -2.83,1.61 v 2.86 z"
         inkscape:connector-curvature="0"
         style="fill:#000000;stroke-width:0" /><path
         id="path2700"
         d="m 595.79,418.65 v 0.37 l -0.01,0.39 -0.01,0.39 -0.01,0.41 -0.04,0.84 -0.06,0.88 -0.08,0.92 -0.11,0.95 -0.13,0.97 -0.17,1.01 -0.19,1.02 -0.23,1.03 -0.27,1.05 -0.31,1.06 -0.34,1.07 -0.4,1.07 -0.21,0.53 -0.22,0.53 -0.24,0.53 -0.25,0.53 c -2.99,6.12 -7.27,9.36 -7.77,9.36 -0.29,0 -0.5,-0.19 -0.5,-0.49 0,-0.15 0,-0.25 0.94,-1.15 4.89,-4.92 7.73,-12.85 7.73,-23.27 0,-8.51 -1.84,-17.28 -8.03,-23.56 -0.64,-0.59 -0.64,-0.7 -0.64,-0.84 0,-0.3 0.21,-0.5 0.5,-0.5 0.5,0 4.97,3.39 7.92,9.71 2.54,5.47 3.13,11 3.13,15.19 z"
         inkscape:connector-curvature="0"
         style="fill:#000000;stroke-width:0" /></g>  </g>
</svg>
