<?xml version="1.0" encoding="UTF-8" standalone="no"?>
<!DOCTYPE svg PUBLIC "-//W3C//DTD SVG 1.1//EN"
 "http://www.w3.org/Graphics/SVG/1.1/DTD/svg11.dtd">
<!-- Generated by graphviz version 2.43.0 (0)
 -->
<!-- Title: S Pages: 1 -->
<svg width="736pt" height="395pt"
 viewBox="0.00 0.00 736.19 394.80" xmlns="http://www.w3.org/2000/svg" xmlns:xlink="http://www.w3.org/1999/xlink">
<g id="graph0" class="graph" transform="scale(1 1) rotate(0) translate(4 390.8)">
<title>S</title>
<polygon fill="white" stroke="transparent" points="-4,4 -4,-390.8 732.19,-390.8 732.19,4 -4,4"/>
<g id="clust1" class="cluster">
<title>cluster_1</title>
<polygon fill="none" stroke="black" points="8,-8 8,-375 720.19,-375 720.19,-8 8,-8"/>
<text text-anchor="middle" x="364.09" y="-359.8" font-family="Times,serif" font-size="14.00">application</text>
</g>
<g id="clust2" class="cluster">
<title>cluster_12</title>
<polygon fill="none" stroke="black" points="16,-234 16,-344 375.64,-344 375.64,-234 16,-234"/>
<text text-anchor="middle" x="195.82" y="-328.8" font-family="Times,serif" font-size="14.00">dark&#45;mode</text>
</g>
<g id="clust3" class="cluster">
<title>cluster_22</title>
<polygon fill="none" stroke="black" points="16,-16 16,-226 712.19,-226 712.19,-16 16,-16"/>
<text text-anchor="middle" x="364.09" y="-210.8" font-family="Times,serif" font-size="14.00">font&#45;size</text>
</g>
<!-- init -->
<g id="node1" class="node">
<title>init</title>
<ellipse fill="black" stroke="black" cx="25.8" cy="-385" rx="1.8" ry="1.8"/>
</g>
<!-- d1 -->
<g id="node3" class="node">
<title>d1</title>
<ellipse fill="none" stroke="black" cx="109.45" cy="-262" rx="32.49" ry="18"/>
<text text-anchor="middle" x="109.45" y="-258.3" font-family="Times,serif" font-size="14.00">light</text>
</g>
<!-- init&#45;&gt;d1 -->
<g id="edge16" class="edge">
<title>init&#45;&gt;d1</title>
<path fill="none" stroke="black" d="M27.72,-383.62C27.78,-383.52 27.86,-383.41 27.93,-383.3"/>
<polygon fill="black" stroke="black" points="30.83,-385.26 33.44,-375 24.99,-381.39 30.83,-385.26"/>
</g>
<!-- j -->
<g id="node2" class="node">
<title>j</title>
<ellipse fill="black" stroke="black" cx="25.8" cy="-262" rx="1.8" ry="1.8"/>
</g>
<!-- j&#45;&gt;d1 -->
<g id="edge1" class="edge">
<title>j&#45;&gt;d1</title>
<path fill="none" stroke="black" d="M27.72,-262C31.82,-262 49.04,-262 66.53,-262"/>
<polygon fill="black" stroke="black" points="66.76,-265.5 76.76,-262 66.76,-258.5 66.76,-265.5"/>
</g>
<!-- d1&#45;&gt;d1 -->
<g id="edge4" class="edge">
<title>d1&#45;&gt;d1</title>
<path fill="none" stroke="black" d="M98.46,-279.04C96.22,-288.86 99.88,-298 109.45,-298 115.43,-298 119.1,-294.43 120.46,-289.35"/>
<polygon fill="black" stroke="black" points="123.96,-289.03 120.43,-279.04 116.96,-289.05 123.96,-289.03"/>
<text text-anchor="middle" x="109.45" y="-301.8" font-family="Times,serif" font-size="14.00">click light</text>
</g>
<!-- d2 -->
<g id="node4" class="node">
<title>d2</title>
<ellipse fill="none" stroke="black" cx="335.79" cy="-261" rx="31.7" ry="18"/>
<text text-anchor="middle" x="335.79" y="-257.3" font-family="Times,serif" font-size="14.00">dark</text>
</g>
<!-- d1&#45;&gt;d2 -->
<g id="edge2" class="edge">
<title>d1&#45;&gt;d2</title>
<path fill="none" stroke="black" d="M142.23,-261.39C151.88,-261.23 162.52,-261.08 172.29,-261 213.66,-260.67 260.95,-260.71 293.81,-260.82"/>
<polygon fill="black" stroke="black" points="293.93,-264.32 303.94,-260.85 293.95,-257.32 293.93,-264.32"/>
<text text-anchor="middle" x="220.79" y="-264.8" font-family="Times,serif" font-size="14.00">click dark</text>
</g>
<!-- d2&#45;&gt;d1 -->
<g id="edge5" class="edge">
<title>d2&#45;&gt;d1</title>
<path fill="none" stroke="black" d="M306.98,-268.82C295.43,-271.69 281.81,-274.58 269.29,-276 226.45,-280.84 215.14,-280.79 172.29,-276 164.61,-275.14 156.49,-273.7 148.75,-272.06"/>
<polygon fill="black" stroke="black" points="149.38,-268.62 138.86,-269.82 147.84,-275.44 149.38,-268.62"/>
<text text-anchor="middle" x="220.79" y="-282.8" font-family="Times,serif" font-size="14.00">click light</text>
</g>
<!-- d2&#45;&gt;d2 -->
<g id="edge3" class="edge">
<title>d2&#45;&gt;d2</title>
<path fill="none" stroke="black" d="M316.72,-275.79C310.51,-286.42 316.87,-297 335.79,-297 348.51,-297 355.55,-292.22 356.92,-285.86"/>
<polygon fill="black" stroke="black" points="360.29,-284.89 354.87,-275.79 353.43,-286.29 360.29,-284.89"/>
<text text-anchor="middle" x="335.79" y="-300.8" font-family="Times,serif" font-size="14.00">click dark</text>
</g>
<!-- i -->
<g id="node5" class="node">
<title>i</title>
<ellipse fill="black" stroke="black" cx="25.8" cy="-98" rx="1.8" ry="1.8"/>
</g>
<!-- 1 -->
<g id="node6" class="node">
<title>1</title>
<ellipse fill="none" stroke="black" cx="109.45" cy="-98" rx="44.69" ry="18"/>
<text text-anchor="middle" x="109.45" y="-94.3" font-family="Times,serif" font-size="14.00">regular</text>
</g>
<!-- i&#45;&gt;1 -->
<g id="edge6" class="edge">
<title>i&#45;&gt;1</title>
<path fill="none" stroke="black" d="M27.72,-98C30.81,-98 41.39,-98 53.92,-98"/>
<polygon fill="black" stroke="black" points="54.28,-101.5 64.28,-98 54.28,-94.5 54.28,-101.5"/>
</g>
<!-- 1&#45;&gt;1 -->
<g id="edge7" class="edge">
<title>1&#45;&gt;1</title>
<path fill="none" stroke="black" d="M98.3,-115.78C96.41,-125.31 100.12,-134 109.45,-134 115.13,-134 118.73,-130.77 120.24,-126.1"/>
<polygon fill="black" stroke="black" points="123.75,-125.89 120.59,-115.78 116.76,-125.66 123.75,-125.89"/>
<text text-anchor="middle" x="109.45" y="-137.8" font-family="Times,serif" font-size="14.00">click &#39;regular&#39;</text>
</g>
<!-- 2 -->
<g id="node7" class="node">
<title>2</title>
<ellipse fill="none" stroke="black" cx="335.79" cy="-93" rx="36" ry="18"/>
<text text-anchor="middle" x="335.79" y="-89.3" font-family="Times,serif" font-size="14.00">small</text>
</g>
<!-- 1&#45;&gt;2 -->
<g id="edge10" class="edge">
<title>1&#45;&gt;2</title>
<path fill="none" stroke="black" d="M140.72,-84.91C150.59,-81.27 161.74,-77.82 172.29,-76 214.78,-68.67 226.53,-70.54 269.29,-76 277.84,-77.09 286.86,-78.95 295.38,-81.05"/>
<polygon fill="black" stroke="black" points="294.55,-84.45 305.11,-83.59 296.32,-77.68 294.55,-84.45"/>
<text text-anchor="middle" x="220.79" y="-79.8" font-family="Times,serif" font-size="14.00">click &#39;small&#39;</text>
</g>
<!-- 3 -->
<g id="node8" class="node">
<title>3</title>
<ellipse fill="none" stroke="black" cx="669.74" cy="-98" rx="34.39" ry="18"/>
<text text-anchor="middle" x="669.74" y="-94.3" font-family="Times,serif" font-size="14.00">large</text>
</g>
<!-- 1&#45;&gt;3 -->
<g id="edge13" class="edge">
<title>1&#45;&gt;3</title>
<path fill="none" stroke="black" d="M136.21,-83.32C147.04,-77.73 159.98,-71.8 172.29,-68 221.66,-52.77 235.76,-54.79 287.29,-51 433.63,-40.24 478.63,-13.01 617.29,-61 626.86,-64.31 636.2,-70.02 644.23,-75.98"/>
<polygon fill="black" stroke="black" points="642.08,-78.74 652.09,-82.19 646.42,-73.25 642.08,-78.74"/>
<text text-anchor="middle" x="335.79" y="-54.8" font-family="Times,serif" font-size="14.00">click &#39;large&#39;</text>
</g>
<!-- 2&#45;&gt;1 -->
<g id="edge8" class="edge">
<title>2&#45;&gt;1</title>
<path fill="none" stroke="black" d="M299.78,-94.14C289.92,-94.45 279.19,-94.76 269.29,-95 234.36,-95.86 195.1,-96.61 164.36,-97.14"/>
<polygon fill="black" stroke="black" points="164.21,-93.64 154.27,-97.31 164.33,-100.64 164.21,-93.64"/>
<text text-anchor="middle" x="220.79" y="-100.8" font-family="Times,serif" font-size="14.00">click &#39;regular&#39;</text>
</g>
<!-- 2&#45;&gt;2 -->
<g id="edge11" class="edge">
<title>2&#45;&gt;2</title>
<path fill="none" stroke="black" d="M316.5,-108.17C310.66,-118.66 317.09,-129 335.79,-129 348.36,-129 355.38,-124.33 356.87,-118.09"/>
<polygon fill="black" stroke="black" points="360.3,-117.39 355.08,-108.17 353.41,-118.63 360.3,-117.39"/>
<text text-anchor="middle" x="335.79" y="-132.8" font-family="Times,serif" font-size="14.00">click &#39;small&#39;</text>
</g>
<!-- 2&#45;&gt;3 -->
<g id="edge15" class="edge">
<title>2&#45;&gt;3</title>
<path fill="none" stroke="red" d="M366.48,-83.59C377.59,-80.52 390.41,-77.52 402.29,-76 497.08,-63.9 523.68,-56.82 617.29,-76 623.27,-77.22 629.4,-79.17 635.27,-81.41"/>
<polygon fill="red" stroke="red" points="634.22,-84.77 644.8,-85.39 636.91,-78.31 634.22,-84.77"/>
<text text-anchor="middle" x="509.79" y="-79.8" font-family="Times,serif" font-size="14.00">click &#39;large&#39;; line spacing &gt; 14</text>
</g>
<!-- 3&#45;&gt;1 -->
<g id="edge9" class="edge">
<title>3&#45;&gt;1</title>
<path fill="none" stroke="black" d="M642.1,-108.99C634.21,-111.93 625.5,-114.87 617.29,-117 474.47,-154.01 433.16,-175.16 287.29,-153 239.2,-145.69 186.19,-127.82 150.87,-114.41"/>
<polygon fill="black" stroke="black" points="151.99,-111.09 141.4,-110.76 149.47,-117.62 151.99,-111.09"/>
<text text-anchor="middle" x="335.79" y="-165.8" font-family="Times,serif" font-size="14.00">click &#39;regular&#39;</text>
</g>
<!-- 3&#45;&gt;2 -->
<g id="edge12" class="edge">
<title>3&#45;&gt;2</title>
<path fill="none" stroke="black" d="M635.09,-97.83C584.54,-97.52 486.01,-96.75 402.29,-95 395.57,-94.86 388.45,-94.68 381.49,-94.48"/>
<polygon fill="black" stroke="black" points="381.56,-90.98 371.46,-94.18 381.35,-97.98 381.56,-90.98"/>
<text text-anchor="middle" x="509.79" y="-101.8" font-family="Times,serif" font-size="14.00">click &#39;small&#39;</text>
</g>
<!-- 3&#45;&gt;3 -->
<g id="edge14" class="edge">
<title>3&#45;&gt;3</title>
<path fill="none" stroke="black" d="M645,-110.92C633.72,-122.13 641.97,-134 669.74,-134 690.14,-134 700,-127.6 699.33,-119.76"/>
<polygon fill="black" stroke="black" points="702.36,-118 694.47,-110.92 696.22,-121.37 702.36,-118"/>
<text text-anchor="middle" x="669.74" y="-137.8" font-family="Times,serif" font-size="14.00">click &#39;large&#39;</text>
</g>
</g>
</svg>
