<?xml version="1.0" encoding="iso-8859-1" standalone="no"?> 
<?xml-stylesheet href="latex-nGpjlK.css" type="text/css"?> 
<svg xmlns="http://www.w3.org/2000/svg" xmlns:xlink="http://www.w3.org/1999/xlink" width="63.2961pt" height="63.56345pt" viewBox="-28.65274 -28.65274 63.2961 63.56345 "> 
<g transform="translate(0, 34.9107 ) scale(1,-1) translate(0,28.65274 )"> 
         <g stroke="#000" fill="#000">
 <g stroke-width="0.4">
 <path d=" M 0.0 0.0 M 28.45274 0.0 C 28.45274 15.71422 15.71422 28.45274 0.0 28.45274 C -15.71422 28.45274 -28.45274 15.71422 -28.45274 0.0 C -28.45274 -15.71422 -15.71422 -28.45274 0.0 -28.45274 C 15.71422 -28.45274 28.45274 -15.71422 28.45274 0.0 Z M 0.0 0.0  " stroke="none"/>
 <clipPath id="pgfcp1"><path d=" M 0.0 0.0 M 28.45274 0.0 C 28.45274 15.71422 15.71422 28.45274 0.0 28.45274 C -15.71422 28.45274 -28.45274 15.71422 -28.45274 0.0 C -28.45274 -15.71422 -15.71422 -28.45274 0.0 -28.45274 C 15.71422 -28.45274 28.45274 -15.71422 28.45274 0.0 Z M 0.0 0.0  "/> </clipPath>
 <g clip-path="url(#pgfcp1)">
 <g transform="matrix(1,0,0,1,0.0,0.0)">
 <g transform="matrix(1.134,0,0,1.134,0.0,0.0)">
  <radialGradient id="pgfsh2" fx="0.40001" fy="0.59999" >
 <stop offset="0.0" stop-color=" #fff "/>
 <stop offset="0.18" stop-color=" #fff "/>
 <stop offset="0.35999" stop-color=" #b3b3b3 "/>
 <stop offset="0.5" stop-color=" #808080 "/>
 <stop offset="1.0" stop-color=" #000 "/>
 </radialGradient>
 <g transform="translate(-50.1875,-50.1875)"> 
 <circle cx="50.1875" cy="50.1875" r="50.1875" style="fill:url(#pgfsh2); stroke:none"/>
 </g> 
 </g>
 </g>
 </g>
 <path d=" M 0.0 0.0 M 28.45274 0.0 C 28.45274 15.71422 15.71422 28.45274 0.0 28.45274 C -15.71422 28.45274 -28.45274 15.71422 -28.45274 0.0 C -28.45274 -15.71422 -15.71422 -28.45274 0.0 -28.45274 C 15.71422 -28.45274 28.45274 -15.71422 28.45274 0.0 Z M 0.0 0.0  " fill="none"/>
 <path d=" M 28.45274 0.0 C 28.45274 -9.01332 15.71422 -16.31985 0.0 -16.31985 C -15.71422 -16.31985 -28.45274 -9.01332 -28.45274 0.0  " fill="none"/>
 <g stroke-dasharray="3.0,3.0" stroke-dashoffset="0.0">
 <path d=" M -28.45274 0.0 C -28.45274 9.01332 -15.71422 16.31985 0.0 16.31985 C 15.71422 16.31985 28.45274 9.01332 28.45274 0.0  " fill="none"/>
 </g>
 <path d=" M 0.0 0.0 L 27.99275 0.0  " fill="none"/>
 <g transform="translate(27.99275,0.0)">
 <g stroke-width="0.31999">
 <g stroke-dasharray="none" stroke-dashoffset="0.0">
 <g stroke-linecap="round">
 <g stroke-linejoin="round">
 <path d=" M -1.19998 1.59998 C -1.09998 0.99998 0.0 0.09999 0.29999 0.0 C 0.0 -0.09999 -1.09998 -0.99998 -1.19998 -1.59998  " fill="none"/>
 </g>
 </g>
 </g>
 </g>
  </g>
 <g transform="translate(25.59511,-7.83852)">
 <g fill="#000">
 <text style="stroke:none" transform="scale(1,-1) translate(2.85764,0)" text-anchor="middle"  font-size="10"> 
<g fill="#000">
 <g stroke="none"> <tspan font-family="cmmi" font-size="10">x</tspan></g> </g>
 </text> 
</g>
 </g>
 <path d=" M 0.0 0.0 L 0.0 27.99275  " fill="none"/>
 <g transform="matrix(0.0,1.0,-1.0,0.0,0.0,27.99275)">
 <g stroke-width="0.31999">
 <g stroke-dasharray="none" stroke-dashoffset="0.0">
 <g stroke-linecap="round">
 <g stroke-linejoin="round">
 <path d=" M -1.19998 1.59998 C -1.09998 0.99998 0.0 0.09999 0.29999 0.0 C 0.0 -0.09999 -1.09998 -0.99998 -1.19998 -1.59998  " fill="none"/>
 </g>
 </g>
 </g>
 </g>
  </g>
 <g transform="translate(3.53297,27.27219)">
 <g fill="#000">
 <text style="stroke:none" transform="scale(1,-1) translate(2.6308,0)" text-anchor="middle"  font-size="10"> 
<g fill="#000">
 <g stroke="none"> <tspan font-family="cmmi" font-size="10">y</tspan> </g> </g>
 </text> 
</g>
 </g>
 <path d=" M 0.0 0.0 L -10.62889 -10.62889  " fill="none"/>
 <g transform="matrix(-0.7071,-0.7071,0.7071,-0.7071,-10.62889,-10.62889)">
 <g stroke-width="0.31999">
 <g stroke-dasharray="none" stroke-dashoffset="0.0">
 <g stroke-linecap="round">
 <g stroke-linejoin="round">
 <path d=" M -1.19998 1.59998 C -1.09998 0.99998 0.0 0.09999 0.29999 0.0 C 0.0 -0.09999 -1.09998 -0.99998 -1.19998 -1.59998  " fill="none"/>
 </g>
 </g>
 </g>
 </g>
  </g>
 <g transform="translate(-13.4993,-18.79266)">
 <g fill="#000">
 <text style="stroke:none" transform="scale(1,-1) translate(2.54515,0)" text-anchor="middle"  font-size="10"> 
<g fill="#000">
 <g stroke="none"> <tspan font-family="cmmi" font-size="10">z</tspan> </g> </g>
 </text> 
</g>
 </g>
 <path d=" M 0.0 0.0 L 8.42404 8.42404  " fill="none"/>
 <g transform="matrix(0.7071,0.7071,-0.7071,0.7071,8.42404,8.42404)">
 <g stroke-width="0.31999">
 <g stroke-dasharray="none" stroke-dashoffset="0.0">
 <g stroke-linecap="round">
 <g stroke-linejoin="round">
 <path d=" M -1.19998 1.59998 C -1.09998 0.99998 0.0 0.09999 0.29999 0.0 C 0.0 -0.09999 -1.09998 -0.99998 -1.19998 -1.59998  " fill="none"/>
 </g>
 </g>
 </g>
 </g>
  </g>
 <g transform="translate(5.39514,12.28227)">
 <g fill="#000">
 <text style="stroke:none" transform="scale(1,-1) translate(3.35416,0)" text-anchor="middle"  font-size="10"> 
<g fill="#000">
 <g stroke="none"> <img 
src="latex-nGpjlK0x.png" alt="S&#x20D7;"  class="vec" ></g> </g>
 </text> 
</g>
 </g>
 </g>
 </g>
 
                </g> 
</svg> 
